<svg width="60" height="60" viewBox="0 0 60 60" fill="none" xmlns="http://www.w3.org/2000/svg">
<g clip-path="url(#clip0_368_12525)">
<path d="M33.5697 8.41066C26.2243 6.44261 18.645 10.8176 16.6764 18.1641C15.7228 21.7228 16.2123 25.44 18.0545 28.6307C19.8966 31.8213 22.8711 34.1038 26.4298 35.0573C27.6182 35.3757 28.8242 35.5334 30.0223 35.5334C32.4124 35.5334 34.7711 34.9064 36.8964 33.6794C40.0872 31.8373 42.3696 28.8628 43.3231 25.3041C45.2915 17.9577 40.9162 10.3793 33.5697 8.41066ZM41.5119 24.8189C40.688 27.8939 38.7159 30.4641 35.9588 32.0557C33.2018 33.6476 29.9898 34.0703 26.9149 33.2463C23.8399 32.4225 21.2697 30.4503 19.6781 27.6933C18.0863 24.9363 17.6635 21.7243 18.4875 18.6493C19.9126 13.3305 24.7404 9.81433 30.0025 9.81433C31.0432 9.81475 32.0794 9.95175 33.0845 10.2218C39.4323 11.9228 43.2128 18.471 41.5119 24.8189ZM49.3473 17.0904C49.1368 16.7732 49.0534 16.4621 49.077 16.0821L49.2787 12.8473C49.3681 11.4116 48.6235 10.1218 47.3355 9.48152L44.4334 8.03882C44.0923 7.86925 43.8645 7.64144 43.695 7.30043L42.2524 4.39851C41.6121 3.1105 40.3244 2.36531 38.8865 2.45519L35.6519 2.65687C35.2718 2.68101 34.9609 2.59722 34.6434 2.38652L31.9429 0.594605C30.7442 -0.200747 29.255 -0.200864 28.0566 0.594605L25.3561 2.38664C25.0388 2.59722 24.7286 2.68101 24.3475 2.65687L21.1129 2.45531C19.6787 2.36613 18.3874 3.11039 17.7471 4.39839L16.3044 7.30054C16.1348 7.64156 15.907 7.86937 15.566 8.03894L12.6638 9.48164C11.3758 10.1219 10.6312 11.4117 10.7206 12.8475L10.9223 16.0821C10.946 16.4623 10.8627 16.7733 10.6521 17.0906L8.86027 19.7909C8.0648 20.9896 8.0648 22.4789 8.86027 23.6774L10.6522 26.3778C10.8628 26.6952 10.9461 27.0062 10.9224 27.3864L10.7209 30.621C10.6312 32.0568 11.3759 33.3464 12.6639 33.9868L15.5661 35.4295C15.9071 35.5991 16.1349 35.8269 16.3045 36.1679L17.7472 39.0701C17.9461 39.4699 18.2075 39.8173 18.5162 40.1038L12.278 53.4816C12.1952 53.6594 12.1702 53.8587 12.2066 54.0515C12.243 54.2442 12.339 54.4207 12.481 54.5561C12.6229 54.6915 12.8038 54.7789 12.9981 54.8061C13.1924 54.8332 13.3903 54.7988 13.5639 54.7076L21.4393 50.5662L23.3289 59.261C23.3706 59.4528 23.4714 59.6266 23.6171 59.758C23.7628 59.8895 23.946 59.9719 24.1411 59.9936C24.3361 60.0154 24.533 59.9754 24.7041 59.8794C24.8752 59.7833 25.0118 59.636 25.0947 59.4581L29.9997 48.939L34.9047 59.458C34.9876 59.6358 35.1243 59.7832 35.2954 59.8792C35.4665 59.9753 35.6634 60.0153 35.8584 59.9935C36.0534 59.9717 36.2367 59.8893 36.3824 59.7579C36.5281 59.6265 36.6288 59.4526 36.6705 59.2609L38.5603 50.566L46.4355 54.7075C46.6092 54.7987 46.8071 54.8333 47.0014 54.8061C47.1958 54.779 47.3767 54.6915 47.5187 54.5562C47.6607 54.4208 47.7566 54.2442 47.793 54.0514C47.8294 53.8586 47.8043 53.6593 47.7214 53.4814L41.4829 40.1028C41.7918 39.8167 42.0535 39.4697 42.2523 39.0698L43.695 36.1677C43.8645 35.8267 44.0923 35.5989 44.4334 35.4293L47.3355 33.9866C48.6235 33.3463 49.3681 32.0565 49.2787 30.6207L49.077 27.3861C49.0534 27.006 49.1368 26.695 49.3474 26.3776L51.1392 23.6773C51.9347 22.4785 51.9347 20.9892 51.1392 19.7907L49.3473 17.0904ZM24.5707 56.1453L23.0098 48.9635C22.9792 48.8223 22.9163 48.6901 22.8261 48.5773C22.736 48.4644 22.6209 48.3739 22.49 48.3129C22.359 48.2518 22.2158 48.2218 22.0713 48.2253C21.9269 48.2287 21.7852 48.2655 21.6574 48.3328L15.1524 51.7535L20.1894 40.9515C20.4867 41.0098 20.7957 41.0328 21.1129 41.0129L24.3475 40.8112C24.7285 40.7878 25.0387 40.871 25.3561 41.0816L28.0565 42.8735C28.6559 43.2712 29.3278 43.4701 29.9997 43.47C30.1663 43.47 30.3329 43.4576 30.4984 43.4332L24.5707 56.1453ZM44.847 51.7536L38.3422 48.3329C38.2143 48.2657 38.0727 48.2289 37.9282 48.2255C37.7838 48.222 37.6405 48.252 37.5096 48.313C37.3787 48.3741 37.2637 48.4646 37.1735 48.5774C37.0833 48.6903 37.0204 48.8225 36.9897 48.9636L35.4289 56.1455L31.0341 46.7209L33.2247 42.0232L34.6435 41.0817C34.9607 40.8712 35.2709 40.7869 35.6518 40.8115L38.8866 41.0132C39.1957 41.0318 39.5058 41.0107 39.8095 40.9505L44.847 51.7536ZM49.5768 22.6407L47.7852 25.3411C47.3458 26.0028 47.1563 26.7101 47.2058 27.503L47.4075 30.7376C47.4498 31.4176 47.111 32.0046 46.5009 32.3078L43.5988 33.7506C42.8875 34.1043 42.3699 34.6219 42.0161 35.3331L40.5733 38.2352C40.2702 38.8452 39.6835 39.185 39.0034 39.1418L35.7685 38.9401C34.9752 38.89 34.2684 39.0802 33.6069 39.5194L30.9064 41.3113C30.3386 41.6878 29.6611 41.688 29.0933 41.3113L26.3928 39.5195C25.7993 39.1255 25.1693 38.9324 24.4735 38.9324C24.3935 38.9324 24.3127 38.9348 24.2309 38.94L20.9963 39.1417C20.3163 39.1848 19.7293 38.8452 19.4261 38.2351L17.9833 35.333C17.6296 34.6218 17.112 34.1041 16.4008 33.7503L13.4987 32.3075C12.8886 32.0044 12.5497 31.4174 12.5922 30.7375L12.7938 27.5027C12.8431 26.71 12.6537 26.0028 12.2146 25.3411L10.4227 22.6405C10.046 22.0728 10.046 21.3952 10.4227 20.8274L12.2146 18.1269C12.6537 17.4652 12.8431 16.7579 12.7938 15.9652L12.5921 12.7305C12.5498 12.0505 12.8886 11.4635 13.4987 11.1603L16.4008 9.71754C17.112 9.36386 17.6296 8.84625 17.9834 8.13503L19.4262 5.23277C19.7295 4.62292 20.3159 4.28496 20.9963 4.32644L24.2311 4.528C25.0238 4.57746 25.7308 4.38796 26.3927 3.94886L29.0934 2.15683C29.6609 1.78007 30.3389 1.78007 30.9064 2.15683L33.6069 3.94875C34.2688 4.38785 34.9754 4.57828 35.7686 4.528L39.0032 4.32632C39.6841 4.28332 40.2702 4.62292 40.5734 5.23289L42.0162 8.13503C42.3699 8.84625 42.8875 9.36386 43.5988 9.71765L46.5009 11.1605C47.111 11.4636 47.4499 12.0506 47.4075 12.7304L47.2058 15.9653C47.1563 16.7582 47.3458 17.4653 47.785 18.1269L49.5768 20.8275C49.9535 21.3953 49.9535 22.073 49.5768 22.6407ZM30.8482 12.5162C30.7725 12.3551 30.6525 12.2189 30.5023 12.1235C30.352 12.028 30.1777 11.9774 29.9997 11.9774C29.8217 11.9774 29.6474 12.028 29.4972 12.1235C29.3469 12.2189 29.227 12.3551 29.1513 12.5162L26.6599 17.8189L20.8469 18.5496C20.6703 18.5718 20.5037 18.6439 20.3665 18.7573C20.2293 18.8707 20.1273 19.0208 20.0723 19.1901C20.0173 19.3594 20.0116 19.5409 20.056 19.7133C20.1003 19.8857 20.1928 20.0419 20.3226 20.1636L24.5959 24.1717L23.4945 29.926C23.461 30.1009 23.478 30.2817 23.5434 30.4472C23.6089 30.6128 23.7202 30.7563 23.8642 30.8609C24.0082 30.9655 24.1791 31.027 24.3567 31.0381C24.5344 31.0492 24.7116 31.0095 24.8675 30.9235L29.9997 28.0977L35.1322 30.9233C35.2881 31.0092 35.4652 31.0489 35.6429 31.0378C35.8205 31.0267 35.9913 30.9652 36.1353 30.8605C36.2793 30.7559 36.3906 30.6124 36.4561 30.4469C36.5215 30.2814 36.5385 30.1006 36.505 29.9258L35.4037 24.1714L39.677 20.1634C39.8068 20.0416 39.8993 19.8854 39.9436 19.713C39.988 19.5406 39.9823 19.3592 39.9273 19.1899C39.8723 19.0206 39.7703 18.8705 39.6331 18.757C39.4959 18.6436 39.3293 18.5716 39.1527 18.5494L33.3397 17.8187L30.8482 12.5162ZM33.7446 23.1571C33.6293 23.2652 33.5432 23.4008 33.4943 23.5512C33.4454 23.7015 33.4354 23.8618 33.4651 24.0171L34.2883 28.3185L30.4518 26.2064C30.3133 26.1302 30.1578 26.0902 29.9997 26.0902C29.8416 26.0902 29.6861 26.1302 29.5476 26.2064L25.7111 28.3185L26.5344 24.0171C26.5641 23.8618 26.554 23.7015 26.5052 23.5512C26.4563 23.4008 26.3702 23.2652 26.2549 23.1571L23.0606 20.161L27.4059 19.6148C27.5628 19.5951 27.7121 19.536 27.84 19.4431C27.9679 19.3502 28.0702 19.2264 28.1374 19.0833L29.9997 15.1194L31.8621 19.0832C31.9293 19.2263 32.0316 19.35 32.1595 19.443C32.2874 19.5359 32.4367 19.595 32.5936 19.6147L36.9389 20.1609L33.7446 23.1571Z" fill="#FF4B4B"/>
</g>
<defs>
<clipPath id="clip0_368_12525">
<rect width="60" height="60" fill="white"/>
</clipPath>
</defs>
</svg>
