<svg width="60" height="60" viewBox="0 0 60 60" fill="none" xmlns="http://www.w3.org/2000/svg">
<g clip-path="url(#clip0_373_14069)">
<path d="M59.7258 47.7929L46.7883 34.8554C46.8524 34.8051 46.9197 34.7591 46.9898 34.7176L50.4379 32.8829C51.3197 32.4193 51.9855 31.6295 52.2932 30.682C52.6009 29.7345 52.5263 28.7043 52.0851 27.811L50.3676 24.2982C50.2358 24.0305 50.1672 23.736 50.1672 23.4376C50.1672 23.1392 50.2358 22.8447 50.3676 22.577L52.0851 19.0642C52.5263 18.1709 52.6009 17.1407 52.2932 16.1932C51.9855 15.2457 51.3197 14.4559 50.4379 13.9923L46.9861 12.1595C46.7221 12.0204 46.4937 11.8226 46.3185 11.5812C46.1433 11.3398 46.0259 11.0613 45.9754 10.7673L45.2995 6.91604C45.1313 5.93436 44.5864 5.0572 43.7808 4.47157C42.9752 3.88593 41.9727 3.63814 40.987 3.78104L37.1151 4.32947C36.8198 4.37059 36.5191 4.34411 36.2355 4.25203C35.952 4.15994 35.693 4.00467 35.4783 3.79791L32.6658 1.07916C31.9526 0.383512 30.9958 -0.00585937 29.9995 -0.00585938C29.0032 -0.00585937 28.0464 0.383512 27.3333 1.07916L24.5208 3.79791C24.306 4.00467 24.047 4.15994 23.7635 4.25203C23.4799 4.34411 23.1792 4.37059 22.8839 4.32947L19.0111 3.78104C18.0255 3.63864 17.0232 3.88662 16.2177 4.47217C15.4123 5.05772 14.8672 5.93458 14.6986 6.91604L14.0226 10.7673C13.9722 11.0614 13.8548 11.34 13.6793 11.5814C13.5039 11.8229 13.2753 12.0207 13.0111 12.1595L9.56294 13.9923C8.68115 14.4559 8.0154 15.2457 7.70767 16.1932C7.39995 17.1407 7.47462 18.1709 7.91576 19.0642L9.63326 22.577C9.7651 22.8447 9.83366 23.1392 9.83366 23.4376C9.83366 23.736 9.7651 24.0305 9.63326 24.2982L7.91201 27.811C7.47087 28.7043 7.3962 29.7345 7.70392 30.682C8.01165 31.6295 8.6774 32.4193 9.55919 32.8829L13.0148 34.7157C13.0845 34.7574 13.1515 34.8035 13.2154 34.8535L0.277943 47.791C0.159486 47.9093 0.0748698 48.0572 0.0328865 48.2193C-0.00909688 48.3813 -0.00691568 48.5517 0.0392035 48.7126C0.0853226 48.8736 0.173697 49.0192 0.295144 49.1345C0.416592 49.2497 0.566681 49.3303 0.729818 49.3679L8.77638 51.2251L10.6336 59.2717C10.6712 59.4348 10.7518 59.5849 10.867 59.7063C10.9823 59.8278 11.1279 59.9162 11.2888 59.9623C11.4498 60.0084 11.6201 60.0106 11.7822 59.9686C11.9443 59.9266 12.0921 59.842 12.2104 59.7235L26.7258 45.2073L27.3342 45.797C28.0475 46.4924 29.0042 46.8816 30.0004 46.8816C30.9966 46.8816 31.9534 46.4924 32.6667 45.797L33.2751 45.2073L47.7933 59.7254C47.9116 59.8439 48.0594 59.9285 48.2215 59.9705C48.3836 60.0125 48.5539 60.0103 48.7149 59.9642C48.8758 59.918 49.0214 59.8297 49.1367 59.7082C49.2519 59.5868 49.3325 59.4367 49.3701 59.2735L51.2273 51.227L59.2739 49.3698C59.437 49.3322 59.5871 49.2516 59.7086 49.1363C59.83 49.0211 59.9184 48.8755 59.9645 48.7145C60.0106 48.5536 60.0128 48.3832 59.9708 48.2212C59.9288 48.0591 59.8442 47.9112 59.7258 47.7929ZM12.0773 57.2035L10.4695 50.2342C10.43 50.0628 10.3432 49.906 10.2188 49.7817C10.0945 49.6574 9.93772 49.5705 9.76638 49.531L2.79701 47.9232L14.1136 36.6067L14.7014 39.9592C14.8704 40.9404 15.4156 41.817 16.221 42.4024C17.0264 42.9879 18.0284 43.2361 19.0139 43.0942L22.8858 42.5457C23.181 42.505 23.4817 42.5317 23.7652 42.6238C24.0486 42.7158 24.3076 42.8709 24.5226 43.0773L25.3767 43.9032L12.0773 57.2035ZM28.6383 44.4488L27.3773 43.2301L25.8267 41.7301C25.1152 41.0377 24.1617 40.6502 23.1689 40.6501C22.9866 40.6504 22.8047 40.6632 22.6242 40.6885L18.7504 41.237C18.2465 41.311 17.7337 41.1848 17.3217 40.8853C16.9097 40.5859 16.6314 40.137 16.5464 39.6348L15.8704 35.7835C15.7875 35.3463 15.6289 34.9269 15.4017 34.5442C15.3805 34.4985 15.3557 34.4547 15.3276 34.4129C14.9776 33.8434 14.4835 33.3764 13.8951 33.0592L10.4404 31.2263C9.98947 30.99 9.64879 30.5866 9.49114 30.1025C9.3335 29.6183 9.37138 29.0917 9.59669 28.6351L11.3142 25.1251C11.5718 24.6009 11.7058 24.0245 11.7058 23.4404C11.7058 22.8563 11.5718 22.2799 11.3142 21.7557L9.59669 18.2429C9.37138 17.7863 9.3335 17.2597 9.49114 16.7755C9.64879 16.2914 9.98947 15.8881 10.4404 15.6517L13.8942 13.8188C14.411 13.547 14.8584 13.1598 15.2017 12.6874C15.5451 12.215 15.7751 11.67 15.8742 11.0945L16.5501 7.24322C16.6336 6.74084 16.9109 6.29126 17.3223 5.99114C17.7338 5.69101 18.2466 5.5643 18.7504 5.63822L22.6233 6.18666C23.2012 6.26963 23.7904 6.21888 24.3456 6.0383C24.9008 5.85773 25.4072 5.55215 25.8258 5.1451L28.6383 2.42635C29.0025 2.07074 29.4914 1.87168 30.0004 1.87168C30.5095 1.87168 30.9984 2.07074 31.3626 2.42635L34.1751 5.1451C34.5934 5.55224 35.0996 5.85795 35.6547 6.03869C36.2097 6.21943 36.7989 6.27037 37.3767 6.1876L41.2504 5.63822C41.7544 5.56391 42.2674 5.69004 42.6794 5.98956C43.0914 6.28908 43.3697 6.73813 43.4545 7.24041L44.1304 11.0917C44.2295 11.6671 44.4595 12.212 44.8027 12.6844C45.1458 13.1567 45.5929 13.5439 46.1095 13.816L49.5642 15.6488C50.0152 15.8852 50.3558 16.2886 50.5135 16.7727C50.6711 17.2569 50.6333 17.7835 50.4079 18.2401L48.6867 21.7501C48.429 22.2743 48.2951 22.8507 48.2951 23.4348C48.2951 24.0189 48.429 24.5952 48.6867 25.1195L50.4042 28.6323C50.6295 29.0889 50.6674 29.6155 50.5097 30.0996C50.3521 30.5838 50.0114 30.9871 49.5604 31.2235L46.1067 33.0564C45.5899 33.3282 45.1425 33.7154 44.7991 34.1878C44.4558 34.6602 44.2257 35.2052 44.1267 35.7807L43.4508 39.632C43.3661 40.1338 43.0886 40.5826 42.6774 40.8825C42.2663 41.1825 41.7541 41.3097 41.2504 41.237L37.3758 40.6876C36.7978 40.6047 36.2086 40.6555 35.6534 40.8361C35.0982 41.0166 34.5918 41.3222 34.1733 41.7292L31.3608 44.4479C30.9967 44.8031 30.5083 45.002 29.9997 45.0021C29.4911 45.0023 29.0025 44.8038 28.6383 44.4488ZM50.2345 49.531C50.0632 49.5705 49.9064 49.6574 49.782 49.7817C49.6577 49.906 49.5709 50.0628 49.5314 50.2342L47.9236 57.2035L34.6233 43.9032L35.4764 43.0773C35.6916 42.8711 35.9505 42.7162 36.234 42.6242C36.5174 42.5321 36.818 42.5053 37.1133 42.5457L40.9861 43.0942C41.9716 43.2363 42.9738 42.9882 43.7792 42.4027C44.5846 41.8172 45.1297 40.9405 45.2986 39.9592L45.8864 36.6067L57.2039 47.9232L50.2345 49.531Z" fill="#FF4B4B"/>
<path d="M44.0625 23.4372C44.063 20.0703 42.8547 16.815 40.6575 14.2638C40.5806 14.161 40.4833 14.0752 40.3718 14.0115C40.2603 13.9479 40.137 13.9078 40.0093 13.8938C39.8817 13.8798 39.7526 13.8922 39.6299 13.9301C39.5073 13.9681 39.3938 14.0308 39.2964 14.1144C39.1989 14.1981 39.1198 14.3008 39.0637 14.4163C39.0076 14.5318 38.9759 14.6576 38.9704 14.7859C38.965 14.9141 38.9859 15.0421 39.032 15.162C39.078 15.2818 39.1482 15.3909 39.2381 15.4825C41.2499 17.8227 42.2979 20.8395 42.17 23.9229C42.0421 27.0062 40.748 29.9259 38.5494 32.0914C36.3507 34.257 33.4117 35.5066 30.3268 35.5877C27.2418 35.6687 24.2412 34.5751 21.9319 32.5281C19.6226 30.481 18.1769 27.6333 17.8873 24.5609C17.5977 21.4885 18.4857 18.4208 20.3718 15.9783C22.2579 13.5357 25.0013 11.9007 28.0471 11.4038C31.0928 10.907 34.2136 11.5854 36.7781 13.3019C36.8802 13.3748 36.9958 13.4265 37.1182 13.4539C37.2406 13.4813 37.3673 13.4838 37.4907 13.4614C37.6141 13.439 37.7317 13.392 37.8366 13.3233C37.9415 13.2546 38.0316 13.1656 38.1015 13.0614C38.1714 12.9573 38.2197 12.8402 38.2435 12.7171C38.2673 12.5939 38.2662 12.4673 38.2402 12.3446C38.2141 12.2219 38.1638 12.1057 38.092 12.0028C38.0203 11.8999 37.9287 11.8125 37.8225 11.7457C35.2171 10.0016 32.1035 9.17825 28.9765 9.40645C25.8495 9.63465 22.8884 10.9013 20.5638 13.0052C18.2392 15.109 16.6843 17.9294 16.1462 21.0182C15.6081 24.107 16.1176 27.287 17.5939 30.053C19.0702 32.819 21.4285 35.0124 24.2941 36.2845C27.1597 37.5567 30.3683 37.8347 33.41 37.0744C36.4518 36.3142 39.1522 34.5592 41.0822 32.0884C43.0123 29.6175 44.0613 26.5725 44.0625 23.4372Z" fill="#FF4B4B"/>
<path d="M35.4141 19.0429L28.1091 26.736L24.6103 22.7497C24.5317 22.6493 24.4333 22.5659 24.3213 22.5047C24.2094 22.4436 24.0861 22.406 23.959 22.3941C23.832 22.3823 23.7039 22.3965 23.5825 22.4359C23.4611 22.4753 23.3491 22.5391 23.2533 22.6233C23.1574 22.7075 23.0798 22.8104 23.0251 22.9257C22.9704 23.041 22.9398 23.1662 22.9352 23.2937C22.9306 23.4212 22.952 23.5484 22.9983 23.6673C23.0445 23.7862 23.1145 23.8944 23.2041 23.9854L27.375 28.7432C27.4609 28.8412 27.5663 28.9203 27.6844 28.9754C27.8026 29.0304 27.9309 29.0602 28.0612 29.0629H28.08C28.2072 29.0628 28.3331 29.0368 28.4499 28.9865C28.5668 28.9362 28.6722 28.8627 28.7597 28.7704L36.7706 20.3329C36.86 20.2445 36.9307 20.1392 36.9785 20.023C37.0264 19.9068 37.0504 19.7822 37.0491 19.6565C37.0478 19.5309 37.0213 19.4068 36.9711 19.2916C36.9209 19.1764 36.8481 19.0725 36.757 18.986C36.6658 18.8995 36.5582 18.8322 36.4406 18.7881C36.3229 18.744 36.1976 18.724 36.0721 18.7294C35.9465 18.7347 35.8233 18.7651 35.7098 18.819C35.5963 18.8729 35.4948 18.949 35.4112 19.0429H35.4141Z" fill="#FF4B4B"/>
</g>
<defs>
<clipPath id="clip0_373_14069">
<rect width="60" height="60" fill="white"/>
</clipPath>
</defs>
</svg>
