<svg width="60" height="60" viewBox="0 0 60 60" fill="none" xmlns="http://www.w3.org/2000/svg">
<path d="M30.9375 29.0625H36.5625V30C36.5625 30.2486 36.6613 30.4871 36.8371 30.6629C37.0129 30.8387 37.2514 30.9375 37.5 30.9375H41.25C41.4986 30.9375 41.7371 30.8387 41.9129 30.6629C42.0887 30.4871 42.1875 30.2486 42.1875 30V29.0625H48.75C48.9986 29.0625 49.2371 28.9637 49.4129 28.7879C49.5887 28.6121 49.6875 28.3736 49.6875 28.125C49.6875 27.8764 49.5887 27.6379 49.4129 27.4621C49.2371 27.2863 48.9986 27.1875 48.75 27.1875H41.25C41.0014 27.1875 40.7629 27.2863 40.5871 27.4621C40.4113 27.6379 40.3125 27.8764 40.3125 28.125V29.0625H38.4375V28.125C38.4375 27.8764 38.3387 27.6379 38.1629 27.4621C37.9871 27.2863 37.7486 27.1875 37.5 27.1875H30.9375C30.6889 27.1875 30.4504 27.2863 30.2746 27.4621C30.0988 27.6379 30 27.8764 30 28.125C30 28.3736 30.0988 28.6121 30.2746 28.7879C30.4504 28.9637 30.6889 29.0625 30.9375 29.0625Z" fill="#FF4B4B"/>
<path d="M51.5625 46.875H44.0625V45.7369C45.6283 44.9353 46.9633 43.7468 47.9406 42.2842C48.9178 40.8216 49.505 39.1334 49.6463 37.38C50.4587 37.18 51.181 36.7141 51.6981 36.0563C52.2152 35.3985 52.4975 34.5867 52.5 33.75C53.2459 33.75 53.9613 33.4537 54.4887 32.9262C55.0162 32.3988 55.3125 31.6834 55.3125 30.9375C55.3125 30.1916 55.0162 29.4762 54.4887 28.9488C53.9613 28.4213 53.2459 28.125 52.5 28.125C52.4992 25.292 51.5817 22.5353 49.8847 20.2668C48.1876 17.9983 45.8022 16.3398 43.0847 15.5391C42.9891 14.871 42.6565 14.2596 42.1476 13.8165C41.6386 13.3733 40.9873 13.1279 40.3125 13.125H38.4375C37.7617 13.1278 37.1095 13.3739 36.6002 13.8183C36.091 14.2626 35.7588 14.8755 35.6644 15.5447C32.9422 16.3354 30.5513 17.9906 28.8529 20.2601C27.1545 22.5297 26.2409 25.2903 26.25 28.125C25.5041 28.125 24.7887 28.4213 24.2613 28.9488C23.7338 29.4762 23.4375 30.1916 23.4375 30.9375C23.4375 31.6834 23.7338 32.3988 24.2613 32.9262C24.7887 33.4537 25.5041 33.75 26.25 33.75C26.2525 34.5867 26.5348 35.3985 27.0519 36.0563C27.569 36.7141 28.2913 37.18 29.1038 37.38C29.245 39.1334 29.8322 40.8216 30.8094 42.2842C31.7867 43.7468 33.1217 44.9353 34.6875 45.7369V46.875H27.1875C25.4476 46.877 23.7796 47.569 22.5493 48.7993C21.319 50.0296 20.627 51.6976 20.625 53.4375V57.1875C20.625 57.4361 20.7238 57.6746 20.8996 57.8504C21.0754 58.0262 21.3139 58.125 21.5625 58.125H57.1875C57.4361 58.125 57.6746 58.0262 57.8504 57.8504C58.0262 57.6746 58.125 57.4361 58.125 57.1875V53.4375C58.123 51.6976 57.431 50.0296 56.2007 48.7993C54.9704 47.569 53.3024 46.877 51.5625 46.875ZM49.6875 35.3728V33.75H50.625C50.6248 34.079 50.5381 34.4021 50.3736 34.6869C50.209 34.9718 49.9724 35.2083 49.6875 35.3728ZM25.3125 30.9375C25.3125 30.6889 25.4113 30.4504 25.5871 30.2746C25.7629 30.0988 26.0014 30 26.25 30C26.25 30.2486 26.3488 30.4871 26.5246 30.6629C26.7004 30.8387 26.9389 30.9375 27.1875 30.9375C27.4361 30.9375 27.6746 30.8387 27.8504 30.6629C28.0262 30.4871 28.125 30.2486 28.125 30V28.125C28.117 25.7971 28.8352 23.5247 30.1795 21.6242C31.5238 19.7236 33.4273 18.2896 35.625 17.5219V23.4375C35.625 23.6861 35.7238 23.9246 35.8996 24.1004C36.0754 24.2762 36.3139 24.375 36.5625 24.375C36.8111 24.375 37.0496 24.2762 37.2254 24.1004C37.4012 23.9246 37.5 23.6861 37.5 23.4375V15.9375C37.5 15.6889 37.5988 15.4504 37.7746 15.2746C37.9504 15.0988 38.1889 15 38.4375 15H40.3125C40.5611 15 40.7996 15.0988 40.9754 15.2746C41.1512 15.4504 41.25 15.6889 41.25 15.9375V23.4375C41.25 23.6861 41.3488 23.9246 41.5246 24.1004C41.7004 24.2762 41.9389 24.375 42.1875 24.375C42.4361 24.375 42.6746 24.2762 42.8504 24.1004C43.0262 23.9246 43.125 23.6861 43.125 23.4375V17.5313C45.3198 18.3006 47.2208 19.7338 48.5646 21.6319C49.9085 23.5301 50.6285 25.7993 50.625 28.125V30C50.625 30.2486 50.7238 30.4871 50.8996 30.6629C51.0754 30.8387 51.3139 30.9375 51.5625 30.9375C51.8111 30.9375 52.0496 30.8387 52.2254 30.6629C52.4012 30.4871 52.5 30.2486 52.5 30C52.7486 30 52.9871 30.0988 53.1629 30.2746C53.3387 30.4504 53.4375 30.6889 53.4375 30.9375C53.4375 31.1861 53.3387 31.4246 53.1629 31.6004C52.9871 31.7762 52.7486 31.875 52.5 31.875H26.25C26.0014 31.875 25.7629 31.7762 25.5871 31.6004C25.4113 31.4246 25.3125 31.1861 25.3125 30.9375ZM28.125 33.75H29.0625V35.3728C28.7776 35.2083 28.541 34.9718 28.3764 34.6869C28.2119 34.4021 28.1252 34.079 28.125 33.75ZM30.9375 36.5625V33.75H47.8125V36.5625C47.8125 38.8003 46.9236 40.9464 45.3412 42.5287C43.7589 44.1111 41.6128 45 39.375 45C37.1372 45 34.9911 44.1111 33.4088 42.5287C31.8264 40.9464 30.9375 38.8003 30.9375 36.5625ZM39.375 46.875C40.3265 46.8727 41.273 46.7383 42.1875 46.4756V47.8125C42.1875 48.5584 41.8912 49.2738 41.3637 49.8012C40.8363 50.3287 40.1209 50.625 39.375 50.625C38.6291 50.625 37.9137 50.3287 37.3863 49.8012C36.8588 49.2738 36.5625 48.5584 36.5625 47.8125V46.4756C37.477 46.7383 38.4235 46.8727 39.375 46.875ZM22.5 53.4375C22.5012 52.3573 22.8748 51.3105 23.558 50.4737C24.2411 49.6368 25.1919 49.0612 26.25 48.8438V56.25H22.5V53.4375ZM28.125 48.75H34.7812C34.9964 49.8096 35.5713 50.7623 36.4085 51.4466C37.2457 52.1309 38.2937 52.5047 39.375 52.5047C40.4563 52.5047 41.5043 52.1309 42.3415 51.4466C43.1787 50.7623 43.7536 49.8096 43.9688 48.75H50.625V56.25H28.125V48.75ZM56.25 56.25H52.5V48.8438C53.5581 49.0612 54.5089 49.6368 55.192 50.4737C55.8752 51.3105 56.2488 52.3573 56.25 53.4375V56.25Z" fill="#FF4B4B"/>
<path d="M19.6875 27.1875C18.2041 27.1875 16.7541 26.7476 15.5207 25.9235C14.2874 25.0994 13.3261 23.9281 12.7584 22.5576C12.1907 21.1872 12.0422 19.6792 12.3316 18.2243C12.621 16.7695 13.3353 15.4331 14.3842 14.3842C15.4331 13.3353 16.7695 12.621 18.2243 12.3316C19.6792 12.0422 21.1872 12.1907 22.5576 12.7584C23.9281 13.3261 25.0994 14.2874 25.9235 15.5207C26.7476 16.7541 27.1875 18.2041 27.1875 19.6875C27.1853 21.6759 26.3944 23.5823 24.9883 24.9883C23.5823 26.3944 21.6759 27.1853 19.6875 27.1875ZM19.6875 14.0625C18.575 14.0625 17.4874 14.3924 16.5624 15.0105C15.6374 15.6286 14.9164 16.5071 14.4907 17.5349C14.0649 18.5627 13.9535 19.6937 14.1706 20.7849C14.3876 21.876 14.9234 22.8783 15.71 23.665C16.4967 24.4517 17.499 24.9874 18.5901 25.2044C19.6813 25.4215 20.8123 25.3101 21.8401 24.8843C22.8679 24.4586 23.7464 23.7376 24.3645 22.8126C24.9826 21.8876 25.3125 20.8 25.3125 19.6875C25.311 18.1961 24.7179 16.7662 23.6633 15.7117C22.6088 14.6571 21.1789 14.064 19.6875 14.0625Z" fill="#FF4B4B"/>
<path d="M23.4375 37.5H15.9375C15.6889 37.5 15.4504 37.4012 15.2746 37.2254C15.0988 37.0496 15 36.8111 15 36.5625V31.9491C14.7797 31.8647 14.5575 31.7738 14.3334 31.6734L11.0691 34.9378C10.8933 35.1136 10.6548 35.2123 10.4062 35.2123C10.1577 35.2123 9.91924 35.1136 9.74344 34.9378L4.43719 29.6316C4.26143 29.4558 4.1627 29.2173 4.1627 28.9688C4.1627 28.7202 4.26143 28.4817 4.43719 28.3059L7.70156 25.0416C7.60125 24.8175 7.51406 24.5953 7.42594 24.375H2.8125C2.56386 24.375 2.3254 24.2762 2.14959 24.1004C1.97377 23.9246 1.875 23.6861 1.875 23.4375V15.9375C1.875 15.6889 1.97377 15.4504 2.14959 15.2746C2.3254 15.0988 2.56386 15 2.8125 15H7.42594C7.51031 14.7797 7.60125 14.5575 7.70156 14.3334L4.43719 11.0691C4.26143 10.8933 4.1627 10.6548 4.1627 10.4062C4.1627 10.1577 4.26143 9.91924 4.43719 9.74344L9.74344 4.43719C9.91924 4.26143 10.1577 4.1627 10.4062 4.1627C10.6548 4.1627 10.8933 4.26143 11.0691 4.43719L14.3334 7.70156C14.5575 7.60125 14.7797 7.51406 15 7.42594V2.8125C15 2.56386 15.0988 2.3254 15.2746 2.14959C15.4504 1.97377 15.6889 1.875 15.9375 1.875H23.4375C23.6861 1.875 23.9246 1.97377 24.1004 2.14959C24.2762 2.3254 24.375 2.56386 24.375 2.8125V7.42594C24.5953 7.51031 24.8175 7.60125 25.0416 7.70156L28.3059 4.43719C28.4817 4.26143 28.7202 4.1627 28.9687 4.1627C29.2173 4.1627 29.4558 4.26143 29.6316 4.43719L34.9378 9.74344C35.1136 9.91924 35.2123 10.1577 35.2123 10.4062C35.2123 10.6548 35.1136 10.8933 34.9378 11.0691L31.6734 14.3334C31.8662 14.7636 32.0346 15.2043 32.1778 15.6534C32.2532 15.8904 32.2313 16.1476 32.117 16.3684C32.0027 16.5892 31.8054 16.7556 31.5684 16.8309C31.3315 16.9063 31.0743 16.8844 30.8535 16.7701C30.6327 16.6558 30.4663 16.4585 30.3909 16.2216C30.2062 15.6496 29.977 15.0929 29.7056 14.5566C29.6177 14.3806 29.5873 14.1815 29.6187 13.9873C29.6502 13.7932 29.7419 13.6138 29.8809 13.4747L32.9494 10.4062L28.9687 6.42562L25.9003 9.49406C25.7612 9.63308 25.5818 9.72482 25.3877 9.75628C25.1935 9.78774 24.9944 9.75734 24.8184 9.66937C24.283 9.39811 23.7273 9.16897 23.1562 8.98406C22.9661 8.92426 22.7999 8.8054 22.6819 8.64473C22.5639 8.48407 22.5002 8.28997 22.5 8.09063V3.75H16.875V8.09063C16.8748 8.28997 16.8111 8.48407 16.6931 8.64473C16.5751 8.8054 16.4089 8.92426 16.2187 8.98406C15.6468 9.16884 15.0901 9.39797 14.5537 9.66937C14.3778 9.75734 14.1787 9.78774 13.9845 9.75628C13.7904 9.72482 13.611 9.63308 13.4719 9.49406L10.4062 6.42562L6.42562 10.4062L9.49406 13.4747C9.63308 13.6138 9.72481 13.7932 9.75628 13.9873C9.78774 14.1815 9.75734 14.3806 9.66937 14.5566C9.39811 15.092 9.16897 15.6477 8.98406 16.2187C8.92426 16.4089 8.80539 16.5751 8.64473 16.6931C8.48407 16.8111 8.28997 16.8748 8.09062 16.875H3.75V22.5H8.09062C8.28997 22.5002 8.48407 22.5639 8.64473 22.6819C8.80539 22.7999 8.92426 22.9661 8.98406 23.1562C9.16884 23.7282 9.39797 24.2849 9.66937 24.8212C9.75734 24.9972 9.78774 25.1963 9.75628 25.3905C9.72481 25.5846 9.63308 25.764 9.49406 25.9031L6.42562 28.9688L10.4062 32.9494L13.4747 29.8809C13.6138 29.7419 13.7932 29.6502 13.9873 29.6187C14.1815 29.5873 14.3806 29.6177 14.5566 29.7056C15.0929 29.977 15.6496 30.2062 16.2216 30.3909C16.4117 30.4507 16.5779 30.5696 16.6959 30.7303C16.8139 30.8909 16.8776 31.085 16.8778 31.2844V35.625H22.5028V34.6875C22.5028 34.4389 22.6016 34.2004 22.7774 34.0246C22.9532 33.8488 23.1917 33.75 23.4403 33.75C23.689 33.75 23.9274 33.8488 24.1032 34.0246C24.279 34.2004 24.3778 34.4389 24.3778 34.6875V36.5625C24.3778 36.6859 24.3535 36.808 24.3062 36.9219C24.2589 37.0358 24.1896 37.1393 24.1022 37.2264C24.0149 37.3135 23.9112 37.3825 23.7971 37.4294C23.6831 37.4764 23.5609 37.5004 23.4375 37.5Z" fill="#FF4B4B"/>
</svg>
