<svg width="60" height="60" viewBox="0 0 60 60" fill="none" xmlns="http://www.w3.org/2000/svg">
<g clip-path="url(#clip0_373_14070)">
<path d="M53.9916 5.83687C53.8731 5.74968 53.7357 5.6916 53.5906 5.66733C53.4455 5.64306 53.2967 5.65329 53.1562 5.69719C49.2496 6.71602 45.1549 6.77841 41.2191 5.87906C37.2305 5.04504 33.5529 3.11714 30.5981 0.31125C30.4113 0.119405 30.1571 0.00778257 29.8894 0C29.7559 0.00160169 29.6242 0.0317041 29.5033 0.0882923C29.3824 0.144881 29.2749 0.226649 29.1881 0.328125C29.1544 0.366562 25.7484 4.25531 18.7819 5.87813C14.8457 6.77738 10.7509 6.71531 6.84375 5.69719C6.70333 5.65303 6.55448 5.64255 6.40926 5.66661C6.26404 5.69068 6.12652 5.7486 6.00784 5.83569C5.88917 5.92278 5.79267 6.03659 5.72616 6.16791C5.65965 6.29922 5.62499 6.44436 5.625 6.59156V39.0206C5.63165 41.4961 6.31303 43.923 7.59586 46.0401C8.87869 48.1573 10.7144 49.8847 12.9056 51.0366L29.4581 59.8894C29.5936 59.9614 29.7448 59.9991 29.8983 59.9991C30.0518 59.9991 30.2029 59.9614 30.3384 59.8894L47.0925 51.0375C49.2842 49.8858 51.1204 48.1584 52.4036 46.041C53.6868 43.9236 54.3683 41.4965 54.375 39.0206V6.59156C54.3748 6.44451 54.3399 6.29958 54.2733 6.16848C54.2067 6.03738 54.1102 5.92378 53.9916 5.83687ZM52.5 39.0206C52.4935 41.1555 51.9053 43.2482 50.7986 45.0738C49.6919 46.8993 48.1085 48.3888 46.2188 49.3819L29.9062 58.0003L13.7906 49.3828C11.899 48.3908 10.3137 46.9018 9.20529 45.0759C8.09686 43.2501 7.50729 41.1566 7.5 39.0206V7.79719C11.3629 8.61444 15.3573 8.58245 19.2066 7.70344C23.1887 6.85133 26.8798 4.97556 29.9156 2.26125C33.0289 4.956 36.7677 6.82769 40.7906 7.70531C44.641 8.58418 48.6363 8.61553 52.5 7.79719V39.0206Z" fill="#FF4B4B"/>
<path d="M30.4903 5.13008C30.3291 5.01392 30.1352 4.95196 29.9366 4.95314C29.7379 4.95432 29.5448 5.01858 29.385 5.13664C26.4669 7.24801 23.1495 8.74336 19.635 9.53164C16.609 10.2191 13.4929 10.421 10.4034 10.1298C10.2735 10.1172 10.1424 10.1321 10.0187 10.1736C9.89494 10.2152 9.78134 10.2823 9.68531 10.3707C9.58826 10.4581 9.51052 10.5647 9.45708 10.6839C9.40365 10.803 9.37569 10.932 9.375 11.0626V39.0207C9.3832 40.8169 9.88086 42.5769 10.8145 44.1115C11.7481 45.646 13.0823 46.8971 14.6738 47.7301L29.4694 55.6426C29.6052 55.7154 29.7569 55.7534 29.9109 55.7532C30.0638 55.753 30.2144 55.7157 30.3497 55.6445L45.3319 47.7273C46.9223 46.8943 48.2555 45.6435 49.1881 44.1094C50.1208 42.5753 50.6175 40.816 50.625 39.0207V18.8073C50.625 18.5586 50.5262 18.3202 50.3504 18.1444C50.1746 17.9685 49.9361 17.8698 49.6875 17.8698C49.4389 17.8698 49.2004 17.9685 49.0246 18.1444C48.8488 18.3202 48.75 18.5586 48.75 18.8073V39.0207C48.7422 40.4755 48.3381 41.9006 47.581 43.1429C46.824 44.3853 45.7427 45.3978 44.4534 46.0716L29.9138 53.7535L15.5559 46.0754C14.2646 45.4021 13.1814 44.3894 12.4227 43.1464C11.664 41.9034 11.2585 40.477 11.25 39.0207V12.076C14.2068 12.2593 17.1746 12.0172 20.0625 11.357C23.6028 10.5566 26.9591 9.09157 29.9531 7.03977C32.9909 9.08052 36.3787 10.544 39.9469 11.357C42.8348 12.0173 45.8026 12.2595 48.7594 12.076V14.9607C48.7594 15.2093 48.8581 15.4478 49.034 15.6236C49.2098 15.7994 49.4482 15.8982 49.6969 15.8982C49.9455 15.8982 50.184 15.7994 50.3598 15.6236C50.5356 15.4478 50.6344 15.2093 50.6344 14.9607V11.0626C50.6343 10.9321 50.607 10.8031 50.5542 10.6838C50.5014 10.5645 50.4243 10.4576 50.3278 10.3698C50.2321 10.2809 50.1185 10.2135 49.9947 10.1719C49.8709 10.1304 49.7396 10.1157 49.6097 10.1288C46.5203 10.4203 43.4041 10.2184 40.3781 9.53071C36.8248 8.72869 33.4646 7.23324 30.4903 5.13008Z" fill="#FF4B4B"/>
<path d="M45.9373 27.1875C45.9373 26.4416 45.6409 25.7262 45.1135 25.1988C44.5861 24.6713 43.8707 24.375 43.1248 24.375H34.8691C36.161 22.7156 37.7876 19.9509 37.4941 16.7991C37.2982 14.6353 35.9435 13.125 34.2026 13.125C31.5363 13.125 31.0788 15.7181 30.9063 16.6941C30.7757 17.3637 30.4951 17.995 30.0856 18.5407C29.6761 19.0865 29.1484 19.5324 28.542 19.845C28.0732 20.1544 27.7123 20.3569 27.3907 20.5341C26.7236 20.8691 26.1146 21.309 25.587 21.8372C24.8369 22.5745 24.2158 23.4323 23.7495 24.375H21.5623V23.475C21.5623 23.2264 21.4635 22.9879 21.2877 22.8121C21.1119 22.6363 20.8734 22.5375 20.6248 22.5375H14.9473C14.6986 22.5375 14.4602 22.6363 14.2844 22.8121C14.1085 22.9879 14.0098 23.2264 14.0098 23.475V38.3812C14.0098 38.6299 14.1085 38.8683 14.2844 39.0442C14.4602 39.22 14.6986 39.3187 14.9473 39.3187H20.6248C20.8734 39.3187 21.1119 39.22 21.2877 39.0442C21.4635 38.8683 21.5623 38.6299 21.5623 38.3812V37.5H24.0457L28.4763 41.0447C28.6427 41.1777 28.8493 41.2501 29.0623 41.25H40.3123C40.8034 41.25 41.286 41.1214 41.712 40.877C42.1379 40.6325 42.4925 40.2808 42.7403 39.8568C42.9882 39.4328 43.1207 38.9513 43.1246 38.4602C43.1286 37.969 43.0039 37.4854 42.7629 37.0575C43.3688 36.6707 43.8036 36.0665 43.9779 35.3691C44.1523 34.6717 44.053 33.934 43.7004 33.3075C44.3063 32.9207 44.7411 32.3165 44.9154 31.6191C45.0898 30.9217 44.9905 30.184 44.6379 29.5575C45.0361 29.3034 45.3638 28.953 45.5909 28.5388C45.818 28.1246 45.9371 27.6599 45.9373 27.1875ZM19.6873 37.4428H15.8848V24.4125H19.6873V37.4428ZM43.1248 28.125H42.1873C41.9386 28.125 41.7002 28.2238 41.5244 28.3996C41.3485 28.5754 41.2498 28.8139 41.2498 29.0625C41.2498 29.3111 41.3485 29.5496 41.5244 29.7254C41.7002 29.9012 41.9386 30 42.1873 30C42.4359 30 42.6744 30.0988 42.8502 30.2746C43.026 30.4504 43.1248 30.6889 43.1248 30.9375C43.1248 31.1861 43.026 31.4246 42.8502 31.6004C42.6744 31.7762 42.4359 31.875 42.1873 31.875H41.2498C41.0011 31.875 40.7627 31.9738 40.5869 32.1496C40.411 32.3254 40.3123 32.5639 40.3123 32.8125C40.3123 33.0611 40.411 33.2996 40.5869 33.4754C40.7627 33.6512 41.0011 33.75 41.2498 33.75C41.4984 33.75 41.7369 33.8488 41.9127 34.0246C42.0885 34.2004 42.1873 34.4389 42.1873 34.6875C42.1873 34.9361 42.0885 35.1746 41.9127 35.3504C41.7369 35.5262 41.4984 35.625 41.2498 35.625H40.3123C40.0636 35.625 39.8252 35.7238 39.6494 35.8996C39.4735 36.0754 39.3748 36.3139 39.3748 36.5625C39.3748 36.8111 39.4735 37.0496 39.6494 37.2254C39.8252 37.4012 40.0636 37.5 40.3123 37.5C40.5609 37.5 40.7994 37.5988 40.9752 37.7746C41.151 37.9504 41.2498 38.1889 41.2498 38.4375C41.2498 38.6861 41.151 38.9246 40.9752 39.1004C40.7994 39.2762 40.5609 39.375 40.3123 39.375H29.3913L24.9607 35.8303C24.7944 35.6973 24.5877 35.6249 24.3748 35.625H21.5623V26.25H24.3748C24.5756 26.2487 24.7708 26.1834 24.9321 26.0638C25.0934 25.9441 25.2124 25.7762 25.272 25.5844C25.6344 24.6665 26.1946 23.8398 26.9126 23.1628C27.3183 22.7604 27.7866 22.4264 28.2991 22.1737C28.7382 21.9368 29.1665 21.6803 29.5826 21.405C30.4034 20.9551 31.1137 20.3281 31.6621 19.5695C32.2105 18.8109 32.5832 17.9398 32.7532 17.0194C33.056 15.3019 33.462 15 34.2026 15C34.9432 15 35.5235 15.81 35.6304 16.9688C36.0054 21.0347 32.1729 24.5813 32.1335 24.6159C31.9924 24.743 31.8933 24.91 31.8491 25.0946C31.805 25.2793 31.818 25.4731 31.8864 25.6502C31.9548 25.8273 32.0754 25.9795 32.2322 26.0866C32.389 26.1937 32.5746 26.2507 32.7645 26.25H43.1248C43.3734 26.25 43.6119 26.3488 43.7877 26.5246C43.9635 26.7004 44.0623 26.9389 44.0623 27.1875C44.0623 27.4361 43.9635 27.6746 43.7877 27.8504C43.6119 28.0262 43.3734 28.125 43.1248 28.125Z" fill="#FF4B4B"/>
</g>
<defs>
<clipPath id="clip0_373_14070">
<rect width="60" height="60" fill="white"/>
</clipPath>
</defs>
</svg>
