<svg width="60" height="60" viewBox="0 0 60 60" fill="none" xmlns="http://www.w3.org/2000/svg">
<path d="M30 48.75C33.7084 48.75 37.3335 47.6503 40.4169 45.5901C43.5004 43.5298 45.9036 40.6014 47.3227 37.1753C48.7419 33.7492 49.1132 29.9792 48.3897 26.3421C47.6663 22.7049 45.8805 19.364 43.2583 16.7418C40.636 14.1195 37.2951 12.3338 33.6579 11.6103C30.0208 10.8868 26.2508 11.2581 22.8247 12.6773C19.3986 14.0964 16.4702 16.4996 14.4099 19.5831C12.3497 22.6665 11.25 26.2916 11.25 30C11.25 34.9728 13.2254 39.742 16.7417 43.2583C20.2581 46.7746 25.0272 48.75 30 48.75ZM13.1719 30.9375H17.8125C18.0611 30.9375 18.2996 30.8387 18.4754 30.6629C18.6512 30.4871 18.75 30.2486 18.75 30V29.0625C18.75 28.5652 18.9475 28.0883 19.2992 27.7367C19.6508 27.3851 20.1277 27.1875 20.625 27.1875C21.1223 27.1875 21.5992 27.3851 21.9508 27.7367C22.3025 28.0883 22.5 28.5652 22.5 29.0625V30C22.5 30.2486 22.5988 30.4871 22.7746 30.6629C22.9504 30.8387 23.1889 30.9375 23.4375 30.9375H29.0625V35.625C28.0679 35.625 27.1141 36.0201 26.4109 36.7234C25.7076 37.4266 25.3125 38.3804 25.3125 39.375C25.3125 40.3696 25.7076 41.3234 26.4109 42.0267C27.1141 42.7299 28.0679 43.125 29.0625 43.125V46.875C24.917 46.6388 21.0041 44.8826 18.0723 41.9422C15.1406 39.0018 13.3958 35.0837 13.1719 30.9375ZM30.9375 46.875V42.1875C30.9375 41.9389 30.8387 41.7004 30.6629 41.5246C30.4871 41.3488 30.2486 41.25 30 41.25H29.0625C28.5652 41.25 28.0883 41.0525 27.7367 40.7008C27.385 40.3492 27.1875 39.8723 27.1875 39.375C27.1875 38.8777 27.385 38.4008 27.7367 38.0492C28.0883 37.6976 28.5652 37.5 29.0625 37.5H30C30.2486 37.5 30.4871 37.4012 30.6629 37.2254C30.8387 37.0496 30.9375 36.8111 30.9375 36.5625V30.9375H35.625C35.625 31.9321 36.0201 32.8859 36.7234 33.5892C37.4266 34.2924 38.3804 34.6875 39.375 34.6875C40.3696 34.6875 41.3234 34.2924 42.0266 33.5892C42.7299 32.8859 43.125 31.9321 43.125 30.9375H46.875C46.65 35.0913 44.8986 39.0156 41.9571 41.9571C39.0156 44.8986 35.0913 46.65 30.9375 46.875ZM46.875 29.0625H42.1875C41.9389 29.0625 41.7004 29.1613 41.5246 29.3371C41.3488 29.5129 41.25 29.7514 41.25 30V30.9375C41.25 31.4348 41.0525 31.9117 40.7008 32.2633C40.3492 32.615 39.8723 32.8125 39.375 32.8125C38.8777 32.8125 38.4008 32.615 38.0492 32.2633C37.6975 31.9117 37.5 31.4348 37.5 30.9375V30C37.5 29.7514 37.4012 29.5129 37.2254 29.3371C37.0496 29.1613 36.8111 29.0625 36.5625 29.0625H30.9375V24.375C31.9321 24.375 32.8859 23.9799 33.5891 23.2767C34.2924 22.5734 34.6875 21.6196 34.6875 20.625C34.6875 19.6304 34.2924 18.6766 33.5891 17.9734C32.8859 17.2701 31.9321 16.875 30.9375 16.875V13.1719C35.0837 13.3958 39.0018 15.1406 41.9422 18.0723C44.8826 21.0041 46.6388 24.917 46.875 29.0625ZM29.0625 13.1719V17.8125C29.0625 18.0611 29.1613 18.2996 29.3371 18.4754C29.5129 18.6512 29.7514 18.75 30 18.75H30.9375C31.4348 18.75 31.9117 18.9476 32.2633 19.2992C32.615 19.6508 32.8125 20.1277 32.8125 20.625C32.8125 21.1223 32.615 21.5992 32.2633 21.9508C31.9117 22.3025 31.4348 22.5 30.9375 22.5H30C29.7514 22.5 29.5129 22.5988 29.3371 22.7746C29.1613 22.9504 29.0625 23.1889 29.0625 23.4375V29.0625H24.375C24.375 28.0679 23.9799 27.1141 23.2766 26.4109C22.5734 25.7076 21.6196 25.3125 20.625 25.3125C19.6304 25.3125 18.6766 25.7076 17.9734 26.4109C17.2701 27.1141 16.875 28.0679 16.875 29.0625H13.1719C13.407 24.9246 15.1566 21.0179 18.0873 18.0873C21.0179 15.1566 24.9246 13.407 29.0625 13.1719Z" fill="#FF4B4B"/>
<path d="M3.75 35.625H7.24687C7.80812 37.9119 8.71547 40.0996 9.9375 42.1125L7.5 44.5875C7.3268 44.7621 7.22916 44.9978 7.22813 45.2437C7.22362 45.3718 7.24542 45.4995 7.29218 45.6188C7.33894 45.7381 7.40967 45.8466 7.5 45.9375L14.0625 52.5C14.2382 52.6746 14.4758 52.7726 14.7234 52.7726C14.9711 52.7726 15.2087 52.6746 15.3844 52.5L17.8594 50.025C19.8787 51.2628 22.0762 52.1829 24.375 52.7531V56.25C24.375 56.4986 24.4738 56.7371 24.6496 56.9129C24.8254 57.0887 25.0639 57.1875 25.3125 57.1875H34.6875C34.9361 57.1875 35.1746 57.0887 35.3504 56.9129C35.5262 56.7371 35.625 56.4986 35.625 56.25V52.7531C37.9119 52.1919 40.0996 51.2845 42.1125 50.0625L44.5875 52.5C44.675 52.5907 44.7798 52.6629 44.8958 52.7122C45.0118 52.7615 45.1365 52.7869 45.2625 52.7869C45.3885 52.7869 45.5132 52.7615 45.6292 52.7122C45.7452 52.6629 45.85 52.5907 45.9375 52.5L52.5 45.9375C52.5869 45.8499 52.6556 45.746 52.7023 45.6318C52.7489 45.5176 52.7726 45.3953 52.7719 45.2719C52.7708 45.0259 52.6732 44.7902 52.5 44.6156L50.0625 42.1125C51.2845 40.0996 52.1919 37.9119 52.7531 35.625H56.25C56.4986 35.625 56.7371 35.5262 56.9129 35.3504C57.0887 35.1746 57.1875 34.9361 57.1875 34.6875V25.3125C57.1875 25.0639 57.0887 24.8254 56.9129 24.6496C56.7371 24.4738 56.4986 24.375 56.25 24.375H52.7531C52.1919 22.0881 51.2845 19.9004 50.0625 17.8875L52.5 15.4125C52.6732 15.2379 52.7708 15.0022 52.7719 14.7562C52.7764 14.6282 52.7546 14.5005 52.7078 14.3812C52.6611 14.2619 52.5903 14.1534 52.5 14.0625L45.9375 7.5C45.7618 7.32539 45.5242 7.22738 45.2766 7.22738C45.0289 7.22738 44.7913 7.32539 44.6156 7.5L42.1125 9.9375C40.0996 8.71547 37.9119 7.80812 35.625 7.24687V3.75C35.625 3.50136 35.5262 3.2629 35.3504 3.08709C35.1746 2.91127 34.9361 2.8125 34.6875 2.8125H25.3125C25.0639 2.8125 24.8254 2.91127 24.6496 3.08709C24.4738 3.2629 24.375 3.50136 24.375 3.75V7.24687C22.0881 7.80812 19.9004 8.71547 17.8875 9.9375L15.4125 7.5C15.325 7.40927 15.2202 7.3371 15.1042 7.2878C14.9882 7.23851 14.8635 7.2131 14.7375 7.2131C14.6115 7.2131 14.4868 7.23851 14.3708 7.2878C14.2548 7.3371 14.15 7.40927 14.0625 7.5L7.5 14.0625C7.41311 14.1501 7.34437 14.254 7.29771 14.3682C7.25106 14.4824 7.22741 14.6047 7.22813 14.7281C7.22916 14.9741 7.3268 15.2098 7.5 15.3844L9.975 17.8594C8.73724 19.8787 7.81712 22.0762 7.24687 24.375H3.75C3.50136 24.375 3.2629 24.4738 3.08709 24.6496C2.91127 24.8254 2.8125 25.0639 2.8125 25.3125V34.6875C2.8125 34.9361 2.91127 35.1746 3.08709 35.3504C3.2629 35.5262 3.50136 35.625 3.75 35.625ZM4.6875 26.25H7.99687C8.21489 26.2549 8.42777 26.1835 8.59889 26.0484C8.77 25.9132 8.88863 25.7226 8.93437 25.5094C9.48377 22.9294 10.5039 20.4727 11.9437 18.2625C12.0605 18.0827 12.1121 17.8683 12.0899 17.655C12.0677 17.4418 11.9731 17.2426 11.8219 17.0906L9.47812 14.7562L14.7844 9.45L17.1188 11.7937C17.2713 11.9473 17.4723 12.0434 17.6876 12.0656C17.9029 12.0878 18.1193 12.0348 18.3 11.9156C20.4974 10.4774 22.9415 9.45715 25.5094 8.90625C25.7226 8.86051 25.9132 8.74187 26.0484 8.57076C26.1835 8.39965 26.2549 8.18676 26.25 7.96875V4.6875H33.75V7.99687C33.7451 8.21489 33.8164 8.42777 33.9516 8.59889C34.0868 8.77 34.2774 8.88863 34.4906 8.93437C37.0683 9.48198 39.5221 10.5023 41.7281 11.9437C41.9088 12.0629 42.1252 12.1159 42.3405 12.0937C42.5558 12.0715 42.7568 11.9754 42.9094 11.8219L45.2437 9.47812L50.55 14.7844L48.2062 17.1188C48.055 17.2707 47.9604 17.4699 47.9382 17.6831C47.916 17.8964 47.9676 18.1108 48.0844 18.2906C49.5242 20.5009 50.5443 22.9575 51.0938 25.5375C51.1395 25.7507 51.2581 25.9413 51.4292 26.0765C51.6004 26.2117 51.8132 26.283 52.0312 26.2781H55.3125V33.7781H52.0031C51.7851 33.7733 51.5722 33.8446 51.4011 33.9798C51.23 34.1149 51.1114 34.3055 51.0656 34.5187C50.5162 37.0987 49.4961 39.5554 48.0562 41.7656C47.9395 41.9454 47.8879 42.1599 47.9101 42.3731C47.9323 42.5863 48.0269 42.7855 48.1781 42.9375L50.5219 45.2719L45.2156 50.5781L42.8813 48.2344C42.7287 48.0808 42.5277 47.9848 42.3124 47.9626C42.0971 47.9403 41.8807 47.9933 41.7 48.1125C39.494 49.5539 37.0401 50.5743 34.4625 51.1219C34.2493 51.1676 34.0587 51.2863 33.9235 51.4574C33.7883 51.6285 33.717 51.8414 33.7219 52.0594V55.3125H26.25V52.0031C26.2549 51.7851 26.1835 51.5722 26.0484 51.4011C25.9132 51.23 25.7226 51.1114 25.5094 51.0656C22.9317 50.518 20.4778 49.4977 18.2719 48.0562C18.0912 47.9371 17.8748 47.8841 17.6595 47.9063C17.4442 47.9285 17.2432 48.0246 17.0906 48.1781L14.7562 50.5219L9.45 45.2156L11.7937 42.8813C11.945 42.7293 12.0396 42.5301 12.0618 42.3168C12.084 42.1036 12.0324 41.8892 11.9156 41.7094C10.479 39.5077 9.45893 37.0608 8.90625 34.4906C8.86051 34.2774 8.74187 34.0868 8.57076 33.9516C8.39965 33.8164 8.18676 33.7451 7.96875 33.75H4.6875V26.25Z" fill="#FF4B4B"/>
</svg>
