<svg width="60" height="60" viewBox="0 0 60 60" fill="none" xmlns="http://www.w3.org/2000/svg">
<path d="M52.7202 59.439H15.9069C15.5336 59.439 15.2402 59.1457 15.2402 58.7724V21.7857C15.2402 21.4124 15.5336 21.119 15.9069 21.119C16.2802 21.119 16.5736 21.4124 16.5736 21.7857V58.1057H52.0536V18.439C52.0536 18.0657 52.3469 17.7724 52.7202 17.7724C53.0936 17.7724 53.3869 18.0657 53.3869 18.439V58.7724C53.3869 59.1324 53.0802 59.439 52.7202 59.439ZM44.2936 10.679H27.7202C27.3469 10.679 27.0536 10.3857 27.0536 10.0124C27.0536 9.63904 27.3469 9.3457 27.7202 9.3457H44.2936C44.6669 9.3457 44.9602 9.63904 44.9602 10.0124C44.9602 10.3857 44.6536 10.679 44.2936 10.679Z" fill="#FF4B4B"/>
<path d="M52.7203 19.1058H44.2937C43.9203 19.1058 43.627 18.8124 43.627 18.4391V10.0124C43.627 9.74576 43.787 9.50576 44.0403 9.39909C44.2937 9.29242 44.5737 9.35909 44.7737 9.54576L53.2003 17.9724C53.387 18.1591 53.4537 18.4524 53.347 18.6924C53.227 18.9458 52.987 19.1058 52.7203 19.1058ZM44.9603 17.7724H51.107L44.9603 11.6124V17.7724ZM47.8937 30.1191H20.7603C20.387 30.1191 20.0937 29.8258 20.0937 29.4524C20.0937 29.0791 20.387 28.7858 20.7603 28.7858H47.8937C48.267 28.7858 48.5603 29.0791 48.5603 29.4524C48.5603 29.8258 48.2537 30.1191 47.8937 30.1191ZM47.8937 27.5591H24.987C24.6137 27.5591 24.3203 27.2658 24.3203 26.8924C24.3203 26.5191 24.6137 26.2258 24.987 26.2258H47.8803C48.2537 26.2258 48.547 26.5191 48.547 26.8924C48.547 27.2658 48.2537 27.5591 47.8937 27.5591ZM47.8937 24.9991H24.987C24.6137 24.9991 24.3203 24.7058 24.3203 24.3324C24.3203 23.9591 24.6137 23.6658 24.987 23.6658H47.8803C48.2537 23.6658 48.547 23.9591 48.547 24.3324C48.547 24.7058 48.2537 24.9991 47.8937 24.9991ZM47.8937 22.4391H27.8137C27.4403 22.4391 27.147 22.1458 27.147 21.7724C27.147 21.3991 27.4403 21.1058 27.8137 21.1058H47.8937C48.267 21.1058 48.5603 21.3991 48.5603 21.7724C48.5603 22.1458 48.2537 22.4391 47.8937 22.4391ZM46.7737 33.8524H20.7603C20.387 33.8524 20.0937 33.5591 20.0937 33.1858C20.0937 32.8124 20.387 32.5191 20.7603 32.5191H46.7737C47.147 32.5191 47.4403 32.8124 47.4403 33.1858C47.4403 33.5591 47.147 33.8524 46.7737 33.8524ZM46.7737 37.3724H29.8003C29.427 37.3724 29.1337 37.0791 29.1337 36.7058C29.1337 36.3324 29.427 36.0391 29.8003 36.0391H46.7737C47.147 36.0391 47.4403 36.3324 47.4403 36.7058C47.4403 37.0791 47.147 37.3724 46.7737 37.3724ZM46.7737 40.8924H29.8003C29.427 40.8924 29.1337 40.5991 29.1337 40.2258C29.1337 39.8524 29.427 39.5591 29.8003 39.5591H46.7737C47.147 39.5591 47.4403 39.8524 47.4403 40.2258C47.4403 40.5991 47.147 40.8924 46.7737 40.8924ZM46.7737 44.4124H29.8003C29.427 44.4124 29.1337 44.1191 29.1337 43.7458C29.1337 43.3724 29.427 43.0791 29.8003 43.0791H46.7737C47.147 43.0791 47.4403 43.3724 47.4403 43.7458C47.4403 44.1191 47.147 44.4124 46.7737 44.4124ZM46.7737 47.9324H20.7603C20.387 47.9324 20.0937 47.6391 20.0937 47.2658C20.0937 46.8924 20.387 46.5991 20.7603 46.5991H46.7737C47.147 46.5991 47.4403 46.8924 47.4403 47.2658C47.4403 47.6391 47.147 47.9324 46.7737 47.9324ZM46.7737 51.4658H20.7603C20.387 51.4658 20.0937 51.1724 20.0937 50.7991C20.0937 50.4258 20.387 50.1324 20.7603 50.1324H46.7737C47.147 50.1324 47.4403 50.4258 47.4403 50.7991C47.4403 51.1724 47.147 51.4658 46.7737 51.4658ZM46.7737 54.9858H20.7603C20.387 54.9858 20.0937 54.6924 20.0937 54.3191C20.0937 53.9458 20.387 53.6524 20.7603 53.6524H46.7737C47.147 53.6524 47.4403 53.9458 47.4403 54.3191C47.4403 54.6924 47.147 54.9858 46.7737 54.9858ZM25.1337 37.3724H20.7603C20.387 37.3724 20.0937 37.0791 20.0937 36.7058C20.0937 36.3324 20.387 36.0391 20.7603 36.0391H25.1337C25.507 36.0391 25.8003 36.3324 25.8003 36.7058C25.8003 37.0791 25.507 37.3724 25.1337 37.3724ZM25.1337 40.8924H20.7603C20.387 40.8924 20.0937 40.5991 20.0937 40.2258C20.0937 39.8524 20.387 39.5591 20.7603 39.5591H25.1337C25.507 39.5591 25.8003 39.8524 25.8003 40.2258C25.8003 40.5991 25.507 40.8924 25.1337 40.8924ZM25.1337 44.4124H20.7603C20.387 44.4124 20.0937 44.1191 20.0937 43.7458C20.0937 43.3724 20.387 43.0791 20.7603 43.0791H25.1337C25.507 43.0791 25.8003 43.3724 25.8003 43.7458C25.8003 44.1191 25.507 44.4124 25.1337 44.4124ZM18.387 24.1591C17.587 24.1591 17.0003 23.5724 16.4803 23.0658C16.2003 22.7858 15.867 22.4658 15.6403 22.3991C15.4137 22.3324 14.9603 22.4524 14.5737 22.5591C13.8937 22.7458 13.1203 22.9458 12.467 22.5591C11.8137 22.1724 11.6137 21.3991 11.4403 20.7191C11.347 20.3324 11.2403 19.9058 11.0803 19.7458C10.9203 19.5858 10.4937 19.4791 10.107 19.3858C9.42699 19.2124 8.65366 19.0258 8.26699 18.3724C7.88033 17.7191 8.09366 16.9458 8.26699 16.2658C8.37366 15.8791 8.49366 15.4258 8.42699 15.1991C8.36033 14.9724 8.04033 14.6524 7.76033 14.3591C7.24033 13.8391 6.66699 13.2524 6.66699 12.4524C6.66699 11.6524 7.25366 11.0658 7.76033 10.5458C8.04033 10.2524 8.36033 9.93242 8.42699 9.70576C8.49366 9.47909 8.37366 9.02576 8.26699 8.63909C8.08033 7.95909 7.88033 7.18576 8.26699 6.53242C8.65366 5.87909 9.42699 5.67909 10.107 5.50576C10.4937 5.41242 10.9337 5.30576 11.0803 5.14576C11.227 4.98576 11.347 4.55909 11.4403 4.17242C11.6137 3.49242 11.8003 2.71909 12.467 2.33242C13.1203 1.94576 13.8937 2.15909 14.5737 2.33242C14.9603 2.43909 15.4137 2.55909 15.6403 2.49242C15.867 2.42576 16.187 2.10576 16.4803 1.82576C17.0003 1.30576 17.587 0.732422 18.387 0.732422C19.187 0.732422 19.7737 1.31909 20.2937 1.82576C20.5737 2.10576 20.907 2.42576 21.1337 2.49242C21.3603 2.55909 21.8003 2.43909 22.2003 2.33242C22.8803 2.14576 23.6537 1.94576 24.307 2.33242C24.9603 2.71909 25.1603 3.49242 25.3203 4.17242C25.4137 4.55909 25.5203 4.99909 25.6803 5.14576C25.8403 5.30576 26.267 5.41242 26.6537 5.50576C27.3337 5.67909 28.107 5.86576 28.4937 6.53242C28.8803 7.18576 28.667 7.95909 28.4937 8.63909C28.387 9.02576 28.267 9.47909 28.3337 9.70576C28.4003 9.93242 28.7203 10.2524 29.0003 10.5458C29.5203 11.0658 30.0937 11.6524 30.0937 12.4524C30.0937 13.2524 29.507 13.8391 29.0003 14.3591C28.7203 14.6391 28.4003 14.9724 28.3337 15.1991C28.267 15.4258 28.387 15.8791 28.4937 16.2658C28.6803 16.9458 28.8803 17.7191 28.4937 18.3724C28.107 19.0258 27.3337 19.2258 26.6537 19.3858C26.267 19.4791 25.8403 19.5858 25.6803 19.7458C25.5203 19.9058 25.4137 20.3324 25.3203 20.7191C25.147 21.3991 24.9603 22.1724 24.307 22.5591C23.6537 22.9458 22.8803 22.7324 22.2003 22.5591C21.8137 22.4524 21.3603 22.3324 21.1337 22.3991C20.907 22.4658 20.587 22.7858 20.2937 23.0658C19.7737 23.5858 19.187 24.1591 18.387 24.1591ZM15.4937 21.0524C15.667 21.0524 15.8403 21.0658 16.0003 21.1191C16.5603 21.2791 17.0003 21.7058 17.4137 22.1191C17.7337 22.4391 18.1337 22.8258 18.387 22.8258C18.6403 22.8258 19.0403 22.4258 19.3603 22.1191C19.787 21.7058 20.2137 21.2658 20.7737 21.1191C21.347 20.9591 21.9603 21.1191 22.5337 21.2791C22.9203 21.3858 23.4403 21.5191 23.6137 21.4258C23.787 21.3191 23.9203 20.7991 24.0137 20.4124C24.1603 19.8258 24.307 19.2391 24.7203 18.8124C25.1337 18.3991 25.7337 18.2391 26.3203 18.1058C26.707 18.0124 27.227 17.8791 27.3337 17.7058C27.4403 17.5324 27.2937 16.9991 27.187 16.6258C27.027 16.0391 26.867 15.4391 27.027 14.8658C27.187 14.3058 27.6137 13.8658 28.027 13.4391C28.347 13.1191 28.7337 12.7191 28.7337 12.4658C28.7337 12.2124 28.3337 11.8258 28.027 11.4924C27.6137 11.0658 27.1737 10.6391 27.027 10.0658C26.867 9.49242 27.027 8.89242 27.187 8.30576C27.2937 7.91909 27.427 7.39909 27.3337 7.22576C27.227 7.05242 26.707 6.91909 26.3203 6.82576C25.7337 6.67909 25.147 6.53242 24.7203 6.11909C24.307 5.70576 24.147 5.10576 24.0137 4.51909C23.9203 4.13242 23.787 3.61242 23.6137 3.50576C23.4403 3.39909 22.907 3.54576 22.5337 3.65242C21.947 3.81242 21.347 3.97242 20.7737 3.81242C20.2137 3.65242 19.7737 3.22576 19.3603 2.81242C19.0403 2.49242 18.6403 2.10576 18.387 2.10576C18.1337 2.10576 17.7337 2.50576 17.4137 2.81242C16.987 3.22576 16.5603 3.66576 16.0003 3.81242C15.427 3.97242 14.8137 3.81242 14.2403 3.65242C13.8537 3.54576 13.3337 3.41242 13.1603 3.50576C12.987 3.61242 12.8537 4.13242 12.7603 4.51909C12.6137 5.09242 12.467 5.69242 12.0537 6.11909C11.6403 6.54576 11.0403 6.69242 10.4537 6.82576C10.067 6.91909 9.54699 7.05242 9.44033 7.22576C9.33366 7.39909 9.48033 7.93242 9.58699 8.30576C9.74699 8.89242 9.90699 9.49242 9.74699 10.0658C9.58699 10.6258 9.16033 11.0658 8.74699 11.4924C8.42699 11.8124 8.04033 12.2124 8.04033 12.4658C8.04033 12.7191 8.44033 13.1058 8.74699 13.4391C9.16033 13.8658 9.60033 14.2924 9.74699 14.8524C9.90699 15.4258 9.74699 16.0391 9.58699 16.6124C9.48033 16.9991 9.34699 17.5191 9.44033 17.6924C9.53366 17.8658 10.067 17.9991 10.4537 18.0924C11.027 18.2391 11.627 18.3858 12.0537 18.7991C12.467 19.2124 12.627 19.8124 12.7603 20.3991C12.8537 20.7858 12.987 21.3058 13.1603 21.4124C13.3337 21.5191 13.867 21.3724 14.2403 21.2658C14.6537 21.1591 15.0803 21.0524 15.4937 21.0524Z" fill="#FF4B4B"/>
<path d="M18.3866 19.279C14.6266 19.279 11.5732 16.2257 11.5732 12.4657C11.5732 8.70568 14.6266 5.65234 18.3866 5.65234C22.1466 5.65234 25.1999 8.70568 25.1999 12.4657C25.1999 16.2257 22.1466 19.279 18.3866 19.279ZM18.3866 6.97234C15.3599 6.97234 12.9066 9.42568 12.9066 12.4523C12.9066 15.479 15.3599 17.9323 18.3866 17.9323C21.4132 17.9323 23.8666 15.4923 23.8666 12.4657C23.8666 9.43901 21.4132 6.97234 18.3866 6.97234Z" fill="#FF4B4B"/>
<path d="M17.0801 15.1316C16.9068 15.1316 16.7334 15.0649 16.6134 14.9316L15.2134 13.5316C14.9601 13.2783 14.9601 12.8516 15.2134 12.5849C15.4668 12.3183 15.8934 12.3316 16.1601 12.5849L17.0934 13.5183L20.6268 9.98492C20.8801 9.73159 21.3068 9.73159 21.5734 9.98492C21.8268 10.2383 21.8268 10.6649 21.5734 10.9316L17.5734 14.9316C17.4268 15.0649 17.2534 15.1316 17.0801 15.1316Z" fill="#FF4B4B"/>
</svg>
