<svg width="60" height="60" viewBox="0 0 60 60" fill="none" xmlns="http://www.w3.org/2000/svg">
<path d="M23.9498 45.3483C24.4082 45.351 24.8625 45.263 25.2868 45.0894C25.711 44.9159 26.0967 44.6602 26.4218 44.337C26.7468 44.0138 27.0048 43.6296 27.1808 43.2064C27.3568 42.7832 27.4474 42.3293 27.4474 41.871C27.4474 41.4126 27.3568 40.9588 27.1808 40.5355C27.0048 40.1123 26.7468 39.7281 26.4218 39.4049C26.0967 39.0818 25.711 38.826 25.2868 38.6525C24.8625 38.4789 24.4082 38.3909 23.9498 38.3936H21.3473C21.1609 38.3936 20.982 38.4677 20.8502 38.5995C20.7183 38.7314 20.6442 38.9102 20.6442 39.0967V43.9421H19.447C19.3547 43.9421 19.2633 43.9603 19.1779 43.9956C19.0926 44.0309 19.0151 44.0827 18.9498 44.148C18.8845 44.2133 18.8328 44.2908 18.7974 44.3761C18.7621 44.4614 18.7439 44.5529 18.7439 44.6452C18.7439 44.7375 18.7621 44.829 18.7974 44.9143C18.8328 44.9996 18.8845 45.0771 18.9498 45.1424C19.0151 45.2077 19.0926 45.2595 19.1779 45.2948C19.2633 45.3301 19.3547 45.3483 19.447 45.3483H20.6442V46.4012H19.447C19.2605 46.4012 19.0817 46.4753 18.9498 46.6072C18.818 46.7391 18.7439 46.9179 18.7439 47.1044C18.7439 47.2909 18.818 47.4697 18.9498 47.6016C19.0817 47.7334 19.2605 47.8075 19.447 47.8075H20.6442V49.6436C20.6442 49.8301 20.7183 50.0089 20.8502 50.1408C20.982 50.2726 21.1609 50.3467 21.3473 50.3467C21.5338 50.3467 21.7127 50.2726 21.8445 50.1408C21.9764 50.0089 22.0505 49.8301 22.0505 49.6436V47.8075H25.7707C25.9572 47.8075 26.136 47.7334 26.2679 47.6016C26.3997 47.4697 26.4738 47.2909 26.4738 47.1044C26.4738 46.9179 26.3997 46.7391 26.2679 46.6072C26.136 46.4753 25.9572 46.4012 25.7707 46.4012H22.0505V45.3483H23.9498ZM22.0505 39.7998H23.9498C24.2231 39.7978 24.4941 39.8498 24.7472 39.953C25.0003 40.0562 25.2305 40.2084 25.4244 40.4009C25.6184 40.5934 25.7724 40.8225 25.8774 41.0748C25.9825 41.3271 26.0366 41.5977 26.0366 41.871C26.0366 42.1443 25.9825 42.4149 25.8774 42.6672C25.7724 42.9195 25.6184 43.1485 25.4244 43.341C25.2305 43.5335 25.0003 43.6857 24.7472 43.7889C24.4941 43.8921 24.2231 43.9441 23.9498 43.9421H22.0505V39.7998ZM8.75214 8.08949C8.89642 8.20762 9.08171 8.26359 9.26726 8.24511C9.45281 8.22663 9.62341 8.1352 9.74155 7.99094C9.82534 7.88852 10.1129 7.63598 10.6592 7.33879C10.7407 7.2953 10.8128 7.23619 10.8714 7.16484C10.93 7.09349 10.974 7.01129 11.0009 6.92294C11.0277 6.83459 11.0369 6.74182 11.0279 6.64992C11.0189 6.55802 10.9918 6.4688 10.9484 6.38734C10.9049 6.30589 10.8458 6.2338 10.7744 6.17518C10.7031 6.11657 10.6209 6.07259 10.5325 6.04574C10.4442 6.0189 10.3514 6.00972 10.2595 6.01872C10.1676 6.02773 10.0784 6.05475 9.99691 6.09824L9.98741 6.1034C9.17484 6.54531 8.80288 6.9175 8.65347 7.09949C8.59493 7.17091 8.55104 7.25315 8.52429 7.34153C8.49754 7.4299 8.48846 7.52269 8.49757 7.61457C8.50668 7.70646 8.5338 7.79565 8.57737 7.87706C8.62095 7.95847 8.68014 8.03049 8.75155 8.08902L8.75214 8.08949ZM12.863 6.43246C12.9282 6.43245 12.9931 6.42334 13.0559 6.40539C15.054 5.83668 17.5431 5.52344 20.0647 5.52344C20.2512 5.52344 20.43 5.44936 20.5619 5.3175C20.6938 5.18564 20.7678 5.00679 20.7678 4.82031C20.7678 4.63383 20.6938 4.45499 20.5619 4.32313C20.43 4.19127 20.2512 4.11719 20.0647 4.11719C17.3782 4.11719 14.8214 4.44074 12.6709 5.05281C12.5075 5.09907 12.3664 5.20286 12.2737 5.34503C12.1809 5.4872 12.1426 5.65814 12.1661 5.82629C12.1895 5.99444 12.2729 6.14844 12.401 6.25985C12.5291 6.37127 12.6932 6.43258 12.863 6.43246Z" fill="#FF4B4B"/>
<path d="M23.7101 34.324C22.1341 34.2496 20.562 34.5373 19.1144 35.1651C17.6669 35.793 16.3825 36.7442 15.3599 37.9457C14.3373 39.1472 13.6036 40.5671 13.2152 42.0964C12.8268 43.6256 12.794 45.2235 13.1194 46.7674C13.4448 48.3113 14.1196 49.7601 15.0921 51.0026C16.0646 52.245 17.3089 53.2481 18.7295 53.9347C20.1501 54.6213 21.7091 54.9733 23.2869 54.9636C24.8646 54.9538 26.4192 54.5826 27.8312 53.8785C27.9321 53.8271 28.0191 53.7521 28.0848 53.6599C28.1506 53.5677 28.193 53.461 28.2086 53.3488C28.2243 53.2366 28.2125 53.1224 28.1745 53.0157C28.1365 52.909 28.0732 52.8131 27.9902 52.7361C27.884 52.6382 27.7503 52.5751 27.6072 52.5553C27.464 52.5355 27.3183 52.5599 27.1894 52.6254C25.2837 53.5709 23.1028 53.8042 21.0401 53.2833C18.9775 52.7623 17.1689 51.5215 15.9405 49.7845C14.7122 48.0475 14.145 45.9288 14.3413 43.8104C14.5376 41.6921 15.4843 39.7136 17.0109 38.2319C18.5374 36.7501 20.5432 35.8627 22.6664 35.7296C24.7897 35.5965 26.8906 36.2265 28.5902 37.506C30.2899 38.7855 31.4763 40.6302 31.9356 42.7075C32.3949 44.7847 32.0967 46.9577 31.0949 48.8345C31.0219 48.968 30.9952 49.1219 31.019 49.2722C31.0428 49.4224 31.1158 49.5605 31.2265 49.6649L31.2577 49.6938C31.3343 49.765 31.4262 49.8176 31.5263 49.8477C31.6264 49.8778 31.7321 49.8845 31.8352 49.8673C31.9383 49.8501 32.0361 49.8095 32.121 49.7486C32.206 49.6877 32.2758 49.6081 32.3252 49.5159C33.15 47.9792 33.572 46.2585 33.5517 44.5146C33.5314 42.7706 33.0695 41.0602 32.2092 39.543C31.3488 38.0259 30.1181 36.7515 28.6319 35.8389C27.1456 34.9262 25.4523 34.405 23.7101 34.324Z" fill="#FF4B4B"/>
<path d="M49.9686 29.3795C47.277 28.3029 43.7137 27.71 39.9346 27.71C38.144 27.7066 36.3562 27.8484 34.5885 28.1341V7.41895C34.5885 5.63535 32.9939 4.01523 30.0985 2.85707C27.407 1.78047 23.8437 1.1875 20.0648 1.1875C16.2858 1.1875 12.7225 1.78047 10.0311 2.85707C7.13559 4.01523 5.54102 5.63535 5.54102 7.41895V40.5885C5.54102 42.1503 6.78426 43.6059 9.05359 44.7177C9.06707 47.3707 9.82522 49.9665 11.2417 52.2097C12.6582 54.4528 14.6761 56.2532 17.0656 57.4057C19.4552 58.5582 22.1203 59.0166 24.7576 58.7286C27.3949 58.4407 29.8983 57.418 31.9829 55.777C34.3377 56.4186 37.0775 56.7576 39.9347 56.7576C43.7138 56.7576 47.2771 56.1646 49.9687 55.088C52.864 53.93 54.4586 52.3097 54.4586 50.5261V33.9414C54.4586 32.1578 52.864 30.5376 49.9686 29.3795ZM10.5532 4.16266C13.0826 3.15098 16.4605 2.59375 20.0649 2.59375C23.6692 2.59375 27.047 3.15098 29.5764 4.16266C31.868 5.07941 33.1824 6.26629 33.1824 7.41895C33.1824 8.5716 31.868 9.75848 29.5764 10.6757C27.047 11.6874 23.6691 12.2446 20.0649 12.2446C16.4607 12.2446 13.0826 11.6869 10.5532 10.6757C8.26152 9.75848 6.94727 8.57172 6.94727 7.41895C6.94727 6.26617 8.26152 5.07941 10.5532 4.16266ZM6.94727 15.6984C7.3963 16.097 7.88749 16.4455 8.41211 16.7377C8.49143 16.7872 8.57986 16.8204 8.67219 16.8354C8.76452 16.8503 8.8589 16.8466 8.94979 16.8245C9.04068 16.8024 9.12623 16.7624 9.20144 16.7068C9.27665 16.6512 9.33999 16.5811 9.38774 16.5007C9.43549 16.4203 9.46669 16.3311 9.47951 16.2385C9.49233 16.1458 9.48651 16.0516 9.46239 15.9612C9.43827 15.8708 9.39634 15.7862 9.33906 15.7123C9.28178 15.6383 9.2103 15.5766 9.12883 15.5307C9.12026 15.5256 9.11159 15.5207 9.10281 15.516C7.71637 14.7309 6.94727 13.8295 6.94727 12.948V10.1706C7.69609 10.8491 8.73215 11.4618 10.0309 11.9813C12.7225 13.0579 16.2858 13.6509 20.0649 13.6509C23.8439 13.6509 27.4071 13.0579 30.0986 11.9813C31.3975 11.4618 32.4336 10.8491 33.1824 10.1706V12.948C33.1824 14.1007 31.868 15.2876 29.5764 16.2043C27.0471 17.2159 23.6691 17.7732 20.0649 17.7732C18.2789 17.7783 16.4956 17.6327 14.7341 17.3377C14.6342 17.32 14.5317 17.3243 14.4337 17.3505C14.3356 17.3766 14.2445 17.4239 14.1667 17.4889C14.0888 17.554 14.0262 17.6353 13.9831 17.7272C13.94 17.819 13.9176 17.9192 13.9173 18.0207V18.0381C13.9173 18.2019 13.9751 18.3605 14.0806 18.4858C14.1862 18.611 14.3326 18.695 14.494 18.7227C16.3348 19.0317 18.1984 19.1846 20.0649 19.1798C23.8438 19.1798 27.4073 18.5868 30.0986 17.5103C31.3975 16.9907 32.4336 16.378 33.1824 15.6995V18.4769C33.1824 19.6295 31.868 20.8164 29.5764 21.733C27.047 22.7448 23.6691 23.3021 20.0649 23.3021C16.4607 23.3021 13.0824 22.745 10.5532 21.7333C8.26152 20.8157 6.94727 19.6293 6.94727 18.4755V15.6984ZM6.94727 21.2268C7.69609 21.9053 8.73215 22.5181 10.0309 23.0376C12.7223 24.1139 16.2857 24.7069 20.0649 24.7069C23.8441 24.7069 27.4071 24.1139 30.0986 23.0373C31.3975 22.5179 32.4336 21.9051 33.1824 21.2266V24.0039C33.1824 25.1566 31.868 26.3434 29.5764 27.2601C27.047 28.2718 23.6691 28.829 20.0649 28.829C16.4607 28.829 13.0826 28.2718 10.5532 27.2601C8.26152 26.3437 6.94727 25.1564 6.94727 24.0038V21.2268ZM6.94727 26.7549C7.69609 27.4334 8.73215 28.0461 10.0309 28.5657C12.7225 29.6423 16.2858 30.2351 20.0649 30.2351C23.8439 30.2351 27.4071 29.6423 30.0986 28.5657C31.3975 28.0461 32.4336 27.4334 33.1824 26.7549V28.4024C30.5787 28.9715 28.4161 29.8657 27.0502 30.9882C24.8256 30.3653 22.4824 30.2962 20.225 30.7869C17.9676 31.2775 15.8645 32.3131 14.0992 33.8032C9.80723 32.9575 6.94727 31.2585 6.94727 29.532V26.7549ZM6.94727 32.2735C8.1973 33.4089 10.2347 34.3512 12.8676 34.9746C11.9376 35.9704 11.1554 37.0945 10.5449 38.3125C8.28016 37.4042 6.94727 36.2098 6.94727 35.0602V32.2735ZM9.12871 43.168C7.73172 42.378 6.9475 41.4639 6.9475 40.5885V37.818C7.68578 38.4844 8.70355 39.0859 9.97867 39.6005C9.54083 40.7475 9.25508 41.9469 9.12871 43.168ZM32.177 52.5937C32.0452 52.4618 31.8663 52.3877 31.6798 52.3878C31.4933 52.3878 31.3145 52.4619 31.1826 52.5937C31.0508 52.7256 30.9767 52.9045 30.9767 53.0909C30.9767 53.2774 31.0508 53.4563 31.1827 53.5881L31.7397 54.145C29.5823 56.0848 26.8264 57.2287 23.9295 57.3866V56.5927C23.9295 56.4062 23.8554 56.2274 23.7236 56.0955C23.5917 55.9636 23.4128 55.8896 23.2264 55.8896C23.0399 55.8896 22.861 55.9636 22.7292 56.0955C22.5973 56.2274 22.5232 56.4062 22.5232 56.5927V57.3866C19.6265 57.2287 16.8709 56.085 14.7135 54.1455L15.2705 53.5886C15.4024 53.4567 15.4765 53.2779 15.4765 53.0914C15.4765 52.9049 15.4024 52.726 15.2705 52.5941C15.1386 52.4623 14.9598 52.3882 14.7733 52.3882C14.5868 52.3882 14.4079 52.4623 14.2761 52.5941L13.7192 53.1511C11.7796 50.9938 10.636 48.2381 10.478 45.3414H11.2721C11.4586 45.3414 11.6374 45.2673 11.7693 45.1355C11.9011 45.0036 11.9752 44.8248 11.9752 44.6383C11.9752 44.4518 11.9011 44.273 11.7693 44.1411C11.6374 44.0092 11.4586 43.9352 11.2721 43.9352H10.4785C10.6364 41.0384 11.7801 38.2828 13.7196 36.1254L14.2766 36.6825C14.4085 36.8144 14.5873 36.8885 14.7738 36.8885C14.9603 36.8885 15.1392 36.8145 15.271 36.6826C15.4029 36.5507 15.477 36.3719 15.477 36.1854C15.477 35.9989 15.403 35.8201 15.2711 35.6882L14.714 35.1311C16.8712 33.1916 19.6267 32.0479 22.5232 31.8897V32.6835C22.5232 32.87 22.5973 33.0488 22.7292 33.1807C22.861 33.3126 23.0399 33.3866 23.2264 33.3866C23.4128 33.3866 23.5917 33.3126 23.7236 33.1807C23.8554 33.0488 23.9295 32.87 23.9295 32.6835V31.8895C26.8262 32.0474 29.5819 33.1911 31.7392 35.1306L31.1821 35.6877C31.0503 35.8196 30.9762 35.9985 30.9762 36.1849C30.9762 36.3714 31.0503 36.5503 31.1822 36.6821C31.314 36.814 31.4929 36.8881 31.6794 36.888C31.8659 36.888 32.0447 36.8139 32.1766 36.6821L32.7336 36.125C34.6731 38.2823 35.8168 41.038 35.9747 43.9347H35.1808C34.9943 43.9347 34.8155 44.0088 34.6836 44.1406C34.5517 44.2725 34.4777 44.4513 34.4777 44.6378C34.4777 44.8243 34.5517 45.0031 34.6836 45.135C34.8155 45.2669 34.9943 45.3409 35.1808 45.3409H35.9747C35.8168 48.2377 34.6731 50.9933 32.7336 53.1507L32.177 52.5937ZM53.0523 50.5259C53.0523 51.6787 51.738 52.8655 49.4464 53.7822C46.917 54.7939 43.5391 55.3511 39.9347 55.3511C37.6889 55.364 35.4486 55.1274 33.255 54.6456C34.323 53.5756 35.2139 52.3425 35.8943 50.9924C37.2072 51.1495 38.5283 51.2286 39.8506 51.2295C43.6295 51.2295 47.2771 50.6364 49.9687 49.5598C51.2675 49.0403 52.3035 48.4275 53.0523 47.749V50.5259ZM53.0523 44.9976C53.0523 46.1504 51.738 47.3372 49.4464 48.254C46.917 49.2657 43.5392 49.8228 39.9307 49.8228C38.7803 49.8283 37.6305 49.7688 36.4867 49.6446C36.9772 48.3493 37.2739 46.9887 37.3671 45.6067C38.2067 45.6688 39.0652 45.7005 39.8909 45.7005C43.6698 45.7005 47.2769 45.1075 49.969 44.0309C51.2678 43.5114 52.3039 42.8988 53.0527 42.2202L53.0523 44.9976ZM53.0523 39.4695C53.0523 40.6222 51.738 41.809 49.4464 42.7257C46.917 43.7373 43.5391 44.2945 39.9328 44.2945C39.0891 44.2956 38.238 44.2629 37.3936 44.1979C37.3508 42.7728 37.0921 41.3624 36.6263 40.0149C37.6994 40.119 38.777 40.1717 39.8552 40.1727C43.6341 40.1727 47.2771 39.5796 49.9684 38.503C51.2672 37.9836 52.3033 37.3708 53.0521 36.6923L53.0523 39.4695ZM49.4464 37.1976C46.917 38.2094 43.5391 38.7666 39.9307 38.7666C38.6226 38.7729 37.3155 38.6952 36.0174 38.5339C34.5065 35.3862 31.8933 32.9023 28.6731 31.5528C31.0586 30.0686 35.3482 29.1162 39.9348 29.1162C43.5392 29.1162 46.9171 29.6734 49.4465 30.6851C51.7381 31.6018 53.0525 32.7886 53.0525 33.9414C53.0525 35.0942 51.7381 36.2812 49.4464 37.1976Z" fill="#FF4B4B"/>
</svg>
