<svg width="60" height="60" viewBox="0 0 60 60" fill="none" xmlns="http://www.w3.org/2000/svg">
<g clip-path="url(#clip0_368_12523)">
<path d="M45.2188 30.3066C42.7623 30.3066 40.4418 31.1075 38.508 32.6226C38.3292 32.7676 38.2145 32.9771 38.1886 33.2059C38.1628 33.4347 38.2279 33.6644 38.3699 33.8457C38.5119 34.0269 38.7195 34.1451 38.9478 34.1747C39.1761 34.2043 39.407 34.143 39.5905 34.004C41.2124 32.7332 43.1586 32.0615 45.2188 32.0615C50.2567 32.0615 54.3553 36.1602 54.3553 41.198C54.3553 46.2359 50.2567 50.3346 45.2188 50.3346C40.1809 50.3346 36.0823 46.2359 36.0823 41.198C36.0811 39.4792 36.5664 37.7952 37.482 36.3405C37.6042 36.1436 37.6436 35.9063 37.5915 35.6804C37.5393 35.4545 37.4 35.2585 37.2038 35.135C37.0076 35.0116 36.7705 34.9707 36.5443 35.0215C36.3182 35.0722 36.1213 35.2104 35.9966 35.4058C34.9047 37.1404 34.326 39.1485 34.3272 41.198C34.3272 47.2037 39.213 52.0897 45.2188 52.0897C51.2245 52.0897 56.1104 47.2038 56.1104 41.198C56.1104 35.1927 51.2245 30.3066 45.2188 30.3066Z" fill="#FF4B4B"/>
<path d="M52.1017 41.6299H46.0968V35.625C46.093 35.3947 45.9989 35.1752 45.8348 35.0137C45.6706 34.8522 45.4496 34.7617 45.2193 34.7617C44.989 34.7617 44.768 34.8522 44.6038 35.0137C44.4397 35.1752 44.3456 35.3947 44.3418 35.625V42.5075C44.3418 42.7403 44.4343 42.9634 44.5988 43.128C44.7634 43.2925 44.9866 43.385 45.2193 43.385H52.1017C52.3327 43.3824 52.5533 43.2887 52.7157 43.1244C52.8781 42.9602 52.9692 42.7385 52.9692 42.5075C52.9692 42.2765 52.8781 42.0548 52.7157 41.8905C52.5533 41.7262 52.3327 41.6326 52.1017 41.6299Z" fill="#FF4B4B"/>
<path d="M53.6179 29.043V13.8214C53.6179 11.5342 51.7569 9.67324 49.4695 9.67324H47.5862V7.51359C47.5862 5.58691 46.0188 4.01953 44.0921 4.01953C42.1655 4.01953 40.5981 5.58691 40.5981 7.51359V9.67312H36.0642V7.51359C36.0642 5.58691 34.4968 4.01953 32.5702 4.01953C30.6435 4.01953 29.0761 5.58691 29.0761 7.51359V9.67312H24.5422V7.51359C24.5422 5.58691 22.9748 4.01953 21.0482 4.01953C19.1215 4.01953 17.5541 5.58691 17.5541 7.51359V9.67312H13.0202V7.51359C13.0202 5.58691 11.4529 4.01953 9.52617 4.01953C7.59949 4.01953 6.03176 5.58691 6.03176 7.51359V9.67312H4.1482C1.86094 9.67312 0 11.5339 0 13.8214V14.2543C0.003763 14.4846 0.0978685 14.7041 0.262022 14.8656C0.426176 15.0271 0.647225 15.1176 0.8775 15.1176C1.10777 15.1176 1.32882 15.0271 1.49298 14.8656C1.65713 14.7041 1.75124 14.4846 1.755 14.2543V13.8214C1.755 12.5019 2.82867 11.4282 4.1482 11.4282H6.03152V13.5878C6.03152 15.5145 7.59891 17.0818 9.52559 17.0818C11.4523 17.0818 13.0196 15.5145 13.0196 13.5877V11.4282H17.5535V13.5878C17.5535 15.5145 19.1209 17.0818 21.0476 17.0818C22.9743 17.0818 24.5416 15.5145 24.5416 13.5877V11.4282H29.0755V13.5878C29.0755 15.5145 30.6429 17.0818 32.5696 17.0818C34.4963 17.0818 36.0636 15.5145 36.0636 13.5877V11.4282H40.5975V13.5878C40.5975 15.5145 42.1649 17.0818 44.0916 17.0818C46.0182 17.0818 47.5856 15.5145 47.5856 13.5877V11.4282H49.4689C50.7886 11.4282 51.8623 12.5019 51.8623 13.8214V20.0148H1.755V17.7643C1.75124 17.5341 1.65713 17.3146 1.49298 17.1531C1.32882 16.9916 1.10777 16.9011 0.8775 16.9011C0.647225 16.9011 0.426176 16.9916 0.262022 17.1531C0.0978685 17.3146 0.003763 17.5341 0 17.7643L0 48.0482C0 50.3355 1.86094 52.1965 4.1482 52.1965H35.3546C37.9729 54.5473 41.4315 55.9798 45.219 55.9798C48.3816 55.9798 51.3986 54.9942 53.9441 53.1298C54.1283 52.9909 54.2504 52.7851 54.284 52.5569C54.3176 52.3288 54.26 52.0965 54.1237 51.9104C53.9874 51.7244 53.7834 51.5994 53.5557 51.5627C53.328 51.5259 53.0949 51.5802 52.907 51.7139C50.6644 53.3565 48.006 54.2247 45.2189 54.2247C38.0364 54.2247 32.193 48.3812 32.193 41.1988C32.193 34.0164 38.0365 28.1729 45.2189 28.1729C46.5185 28.1729 47.8129 28.3673 49.0552 28.7496C49.0798 28.7571 49.104 28.765 49.1286 28.7727C54.4068 30.4371 58.2449 35.3779 58.2449 41.1988C58.2449 44.202 57.198 47.1326 55.2974 49.451C55.2234 49.54 55.1677 49.6428 55.1336 49.7534C55.0995 49.8639 55.0876 49.9802 55.0986 50.0954C55.1096 50.2106 55.1433 50.3225 55.1977 50.4246C55.2522 50.5268 55.3262 50.6171 55.4157 50.6905C55.5052 50.7639 55.6083 50.8189 55.7192 50.8522C55.83 50.8856 55.9463 50.8967 56.0614 50.8849C56.1766 50.8732 56.2882 50.8387 56.39 50.7836C56.4918 50.7285 56.5816 50.6538 56.6544 50.5638C58.8118 47.9326 60 44.6067 60 41.1988C60 36.1662 57.471 31.7135 53.6179 29.043ZM11.2646 13.5877C11.2646 14.5466 10.4845 15.3267 9.52559 15.3267C8.56664 15.3267 7.78652 14.5467 7.78652 13.5877V7.51359C7.78652 6.55465 8.56652 5.77453 9.52559 5.77453C10.4845 5.77453 11.2646 6.55453 11.2646 7.51359V13.5877ZM22.7868 13.5877C22.7868 14.5466 22.0066 15.3267 21.0477 15.3267C20.0887 15.3267 19.3086 14.5467 19.3086 13.5877V7.51359C19.3086 6.55465 20.0887 5.77453 21.0477 5.77453C22.0066 5.77453 22.7868 6.55453 22.7868 7.51359V13.5877ZM34.309 13.5877C34.309 14.5466 33.5289 15.3267 32.5699 15.3267C31.611 15.3267 30.8309 14.5467 30.8309 13.5877V7.51359C30.8309 6.55465 31.611 5.77453 32.5699 5.77453C33.5289 5.77453 34.309 6.55453 34.309 7.51359V13.5877ZM45.8311 13.5877C45.8311 14.5466 45.051 15.3267 44.092 15.3267C43.1331 15.3267 42.353 14.5467 42.353 13.5877V7.51359C42.353 6.55465 43.1331 5.77453 44.092 5.77453C45.051 5.77453 45.8311 6.55453 45.8311 7.51359V13.5877ZM22.5001 21.7698H31.1176V30.1569H22.5001V21.7698ZM10.3725 50.4414H4.1482C2.82867 50.4414 1.755 49.3677 1.755 48.048V42.0541H10.3724L10.3725 50.4414ZM10.3725 40.2991H1.755V31.912H10.3724L10.3725 40.2991ZM10.3725 30.1569H1.755V21.7698H10.3724L10.3725 30.1569ZM12.1275 31.912H20.7449V40.2991H12.1275V31.912ZM20.7451 50.4414H12.1277V42.0543H20.7451V50.4414ZM20.7451 30.1569H12.1277V21.7698H20.7451V30.1569ZM22.5 31.912H31.1175V36.7659C30.7568 37.9127 30.5381 39.0993 30.4663 40.2993H22.5V31.912ZM33.6803 50.4414H22.5001V42.0543H30.4628C30.6367 45.1518 31.7532 48.0509 33.6803 50.4414ZM32.8727 33.082V31.912H33.7294C33.425 32.2879 33.1391 32.6784 32.8727 33.082ZM41.4901 26.8948C39.199 27.4924 37.1231 28.6279 35.4047 30.1569H32.8727V21.7698H41.4901V26.8948ZM51.8627 27.9922C51.038 27.5772 50.1759 27.2408 49.288 26.9876L49.2314 26.9714C47.9258 26.6036 46.5757 26.4173 45.2193 26.4177C44.5499 26.4178 43.8912 26.4633 43.2452 26.5499V21.7696H51.8627V27.9922Z" fill="#FF4B4B"/>
</g>
<defs>
<clipPath id="clip0_368_12523">
<rect width="60" height="60" fill="white"/>
</clipPath>
</defs>
</svg>
