<svg width="60" height="60" viewBox="0 0 60 60" fill="none" xmlns="http://www.w3.org/2000/svg">
<g clip-path="url(#clip0_373_14071)">
<path d="M59.1546 50.0998L47.952 39.2292C47.4183 38.7112 46.713 38.4315 45.9656 38.4433C45.5091 38.449 45.0609 38.5669 44.6606 38.7864L39.3768 33.6591C41.4641 30.3628 42.6743 26.4587 42.6743 22.2767C42.6743 10.5113 33.1025 0.939453 21.3373 0.939453C9.57187 0.939688 0 10.5114 0 22.2768C0 34.0421 9.57187 43.614 21.3373 43.614C26.3899 43.614 31.0371 41.8475 34.6963 38.9011L39.7038 43.7602C39.3507 44.2453 39.1642 44.8299 39.1734 45.4429C39.1847 46.1901 39.4848 46.8869 40.0186 47.4048L51.2214 58.2753C51.763 58.8008 52.4644 59.0622 53.1654 59.0622C53.8945 59.0622 54.6229 58.7791 55.1694 58.216L59.2141 54.0477C60.2858 52.9432 60.2593 51.1722 59.1546 50.0998ZM1.875 22.2768C1.875 11.5454 10.6057 2.81469 21.3373 2.81469C32.0687 2.81469 40.7993 11.5454 40.7993 22.277C40.7993 33.0084 32.0687 41.7391 21.3373 41.7391C10.6057 41.739 1.875 33.0084 1.875 22.2768ZM38.2901 35.2174L43.2675 40.0473L40.9895 42.395L36.109 37.6591C36.8969 36.9017 37.6261 36.0855 38.2901 35.2174ZM57.8685 52.7421L53.8237 56.9103C53.4718 57.273 52.8899 57.2818 52.5271 56.9298L41.3243 46.0592C41.15 45.8901 41.0521 45.6613 41.0483 45.4149C41.0447 45.1685 41.1357 44.9368 41.3048 44.7624L45.3495 40.5942C45.5186 40.4199 45.7474 40.3218 45.9939 40.3182L46.0083 40.3181C46.2493 40.3181 46.4754 40.4089 46.6463 40.5747L57.8488 51.4453C58.2116 51.7975 58.2204 52.3793 57.8685 52.7421ZM21.3371 6.10941C12.4225 6.10941 5.16973 13.362 5.16973 22.2767C5.16973 31.1914 12.4225 38.444 21.3371 38.444C30.2518 38.444 37.5046 31.1914 37.5046 22.2767C37.5046 13.362 30.2518 6.10941 21.3371 6.10941ZM21.3371 36.5691C13.4563 36.5691 7.04473 30.1577 7.04473 22.2768C7.04473 14.396 13.4563 7.98441 21.3371 7.98441C29.218 7.98441 35.6296 14.3959 35.6296 22.2767C35.6296 30.1576 29.218 36.5691 21.3371 36.5691ZM31.2696 15.0655C30.6984 14.4972 29.9395 14.1883 29.134 14.1877C28.3282 14.19 27.5715 14.5058 27.0011 15.0794L19.1152 23.0618L15.6751 19.6217C14.4964 18.4433 12.579 18.4433 11.4006 19.6217C10.8296 20.1927 10.5152 20.9517 10.5152 21.759C10.5152 22.5664 10.8296 23.3253 11.4005 23.8963L16.985 29.4808C17.556 30.0518 18.315 30.3661 19.1223 30.3661C19.9298 30.3661 20.6887 30.0516 21.2595 29.4808C23.6496 27.0909 25.355 25.3539 27.1605 23.5149C28.531 22.1175 29.9046 20.723 31.2813 19.3317C32.4544 18.1522 32.449 16.2383 31.2696 15.0655ZM29.9505 18.011C28.5715 19.4046 27.1956 20.8014 25.8229 22.2013C24.0203 24.0371 22.3178 25.771 19.9337 28.155C19.8274 28.2619 19.701 28.3466 19.5617 28.4043C19.4224 28.462 19.2731 28.4915 19.1223 28.4911C18.9716 28.4915 18.8222 28.462 18.6829 28.4043C18.5437 28.3466 18.4172 28.2618 18.3109 28.155L12.7263 22.5704C12.5095 22.3536 12.3902 22.0654 12.3902 21.759C12.3902 21.4525 12.5096 21.1644 12.7263 20.9476C12.9499 20.7239 13.2438 20.6121 13.5377 20.6121C13.8316 20.6121 14.1255 20.724 14.3491 20.9476L18.4562 25.0545C18.6321 25.2303 18.8705 25.3291 19.1191 25.3291H19.122C19.2455 25.3287 19.3678 25.3039 19.4818 25.2561C19.5958 25.2083 19.6992 25.1385 19.7861 25.0505L28.3327 16.3994C28.4382 16.2928 28.5637 16.2081 28.7022 16.1503C28.8406 16.0925 28.9891 16.0628 29.1391 16.0627H29.1424C29.2919 16.0623 29.4399 16.0915 29.5781 16.1485C29.7162 16.2055 29.8417 16.2893 29.9474 16.395C30.3937 16.8389 30.3959 17.5632 29.9505 18.011Z" fill="#FF4B4B"/>
</g>
<defs>
<clipPath id="clip0_373_14071">
<rect width="60" height="60" fill="white"/>
</clipPath>
</defs>
</svg>
