<svg width="30" height="30" viewBox="0 0 30 30" fill="none" xmlns="http://www.w3.org/2000/svg">
<g clip-path="url(#clip0_216_1322)">
<path d="M15.1545 7.10156C10.8959 7.10156 7.44629 10.5274 7.44629 14.7621C7.44629 16.4275 7.99347 17.9977 8.92131 19.2586L7.94589 22.1135L10.9197 21.1618C12.133 21.9707 13.6081 22.4227 15.1782 22.4227C19.4368 22.4227 22.9102 18.9969 22.9102 14.7621C22.8864 10.5274 19.413 7.10156 15.1545 7.10156ZM19.6747 17.9263C19.4844 18.4497 18.5565 18.9493 18.1521 18.9969C17.7476 19.0445 17.7476 19.33 15.4399 18.4497C13.156 17.5457 11.7048 15.238 11.5859 15.0714C11.4669 14.9287 10.658 13.8581 10.658 12.7637C10.658 11.6694 11.229 11.1222 11.4431 10.9081C11.6572 10.6939 11.8951 10.6226 12.0379 10.6226C12.1806 10.6226 12.3472 10.6464 12.4661 10.6464C12.6089 10.6464 12.7754 10.575 12.9657 11.027C13.156 11.479 13.6081 12.5734 13.6556 12.6924C13.7032 12.8113 13.7508 12.9303 13.6794 13.073C13.6081 13.2158 13.5605 13.3109 13.4653 13.4537C13.3464 13.5726 13.2274 13.7392 13.1323 13.8343C13.0133 13.9533 12.8943 14.0722 13.0371 14.2863C13.1798 14.5005 13.6319 15.238 14.298 15.8327C15.1545 16.594 15.892 16.8319 16.1061 16.9509C16.3202 17.0698 16.4629 17.0461 16.5819 16.9033C16.7246 16.7606 17.1529 16.261 17.2956 16.0231C17.4384 15.8089 17.6049 15.8327 17.7952 15.9041C18.0093 15.9755 19.1037 16.5227 19.3416 16.6416C19.5557 16.7606 19.7223 16.8081 19.7698 16.9033C19.8412 16.9509 19.8412 17.4029 19.6747 17.9263Z" fill="#0D1E46"/>
<path d="M22.4584 0.0117188H7.51784C3.37827 0.0117188 0 3.38999 0 7.52956V22.4939C0 26.6097 3.37827 29.9879 7.51784 29.9879H22.4822C26.6217 29.9879 30 26.6097 30 22.4701V7.52956C29.9762 3.38999 26.5979 0.0117188 22.4584 0.0117188ZM15.1546 23.8737C13.5369 23.8737 12.0381 23.4693 10.7058 22.7318L5.61459 24.3495L7.27994 19.4725C6.44726 18.0926 5.97145 16.4748 5.97145 14.7619C5.97145 9.7183 10.0872 5.6501 15.1546 5.6501C20.222 5.6501 24.3378 9.7183 24.3378 14.7619C24.3378 19.8055 20.222 23.8737 15.1546 23.8737Z" fill="#0D1E46"/>
</g>
<defs>
<clipPath id="clip0_216_1322">
<rect width="30" height="30" fill="white"/>
</clipPath>
</defs>
</svg>
