<svg width="30" height="30" viewBox="0 0 30 30" fill="none" xmlns="http://www.w3.org/2000/svg">
<path d="M27.224 15.1888C26.914 13.8419 25.8123 12.8484 24.4863 12.7005C21.3469 12.3498 18.1678 12.3481 15.0043 12.3498C11.8394 12.3481 8.66099 12.3498 5.52062 12.7005C4.19525 12.8487 3.0942 13.8422 2.78453 15.1888C2.34318 17.1067 2.33789 19.2003 2.33789 21.1751C2.33789 23.1499 2.33789 25.2431 2.77924 27.1611C3.08891 28.5076 4.18996 29.5011 5.51598 29.6493C8.6557 30.0004 11.8341 30.0017 14.9987 30.0004C18.1635 30.002 21.3413 30.0004 24.482 29.6493C25.8073 29.5011 26.9091 28.5076 27.2187 27.1611C27.6597 25.2431 27.6621 23.1499 27.6621 21.1751C27.6617 19.1999 27.665 17.1067 27.224 15.1888ZM9.56122 16.6753H7.72834V26.4147H6.02582V16.6753H4.22635V15.0799H9.56122V16.6753ZM14.1854 26.415H12.654V25.4936C12.0455 26.191 11.4679 26.5311 10.9051 26.5311C10.4118 26.5311 10.0724 26.3313 9.9192 25.9035C9.83582 25.6481 9.78421 25.2438 9.78421 24.6476V17.9692H11.3144V24.1874C11.3144 24.5461 11.3144 24.7323 11.3283 24.7826C11.365 25.0202 11.4811 25.1406 11.6862 25.1406C11.9933 25.1406 12.3142 24.904 12.6536 24.424V17.9692H14.1851L14.1854 26.415ZM19.9994 23.8801C19.9994 24.6612 19.9468 25.224 19.8445 25.5819C19.6401 26.2102 19.2308 26.5311 18.6221 26.5311C18.0775 26.5311 17.5521 26.2287 17.0403 25.5968V26.4153H15.5101V15.0799H17.0403V18.7817C17.5346 18.1733 18.0593 17.8656 18.6221 17.8656C19.2308 17.8656 19.6404 18.1862 19.8445 18.8185C19.9474 19.1582 19.9994 19.7167 19.9994 20.5164V23.8801ZM25.7749 22.471H22.7143V23.9681C22.7143 24.7499 22.97 25.1403 23.4961 25.1403C23.8729 25.1403 24.0922 24.9355 24.1796 24.5265C24.1938 24.4435 24.214 24.1034 24.214 23.4897H25.7753V23.713C25.7753 24.2063 25.7564 24.5461 25.7425 24.6989C25.6948 25.0277 25.5726 25.3413 25.3852 25.6157C24.9614 26.2291 24.3334 26.5315 23.5341 26.5315C22.7335 26.5315 22.1241 26.2433 21.6817 25.6666C21.3572 25.2438 21.1904 24.5781 21.1904 23.6806V20.7225C21.1904 19.8196 21.3383 19.1592 21.6635 18.7325C22.1055 18.1545 22.7146 17.8666 23.4964 17.8666C24.2643 17.8666 24.873 18.1545 25.3018 18.7325C25.6224 19.1592 25.7756 19.8196 25.7756 20.7225V22.471H25.7749Z" fill="#0D1E46"/>
<path d="M23.4824 19.2429C22.9709 19.2429 22.7145 19.6336 22.7145 20.4144V21.1959H24.2447V20.4144C24.2443 19.6336 23.9886 19.2429 23.4824 19.2429ZM17.8031 19.2429C17.551 19.2429 17.2956 19.362 17.0399 19.6151V24.7627C17.2953 25.0188 17.551 25.1399 17.8031 25.1399C18.2445 25.1399 18.4688 24.7627 18.4688 24.0001V20.3952C18.4688 19.6336 18.2445 19.2429 17.8031 19.2429ZM18.658 11.5706C19.2221 11.5706 19.809 11.2279 20.4247 10.5225V11.4535H21.9714V2.91805H20.4247V9.44164C20.082 9.926 19.7571 10.1655 19.4478 10.1655C19.2407 10.1655 19.1189 10.0431 19.0852 9.80326C19.0663 9.75264 19.0663 9.56439 19.0663 9.20211V2.91805H17.5246V9.66728C17.5246 10.2701 17.5762 10.678 17.6615 10.9364C17.817 11.3688 18.1601 11.5706 18.658 11.5706ZM7.89069 6.81474V11.4535H9.60579V6.81474L11.6689 0H9.93465L8.76445 4.49783L7.54695 0H5.74219C6.1038 1.06168 6.47997 2.12865 6.84158 3.19133C7.39178 4.78865 7.7352 5.99292 7.89069 6.81474ZM13.9676 11.5706C14.7425 11.5706 15.3446 11.2792 15.7717 10.6969C16.0963 10.2697 16.2518 9.59681 16.2518 8.68963V5.70078C16.2518 4.78831 16.0966 4.12133 15.7717 3.69024C15.3446 3.1063 14.7428 2.81483 13.9676 2.81483C13.1968 2.81483 12.595 3.1063 12.1669 3.69024C11.8383 4.12133 11.6828 4.78831 11.6828 5.70078V8.68963C11.6828 9.59681 11.8383 10.2697 12.1669 10.6969C12.5946 11.2792 13.1968 11.5706 13.9676 11.5706ZM13.2295 5.39078C13.2295 4.60106 13.4691 4.20735 13.9676 4.20735C14.4662 4.20735 14.7051 4.60073 14.7051 5.39078V8.98111C14.7051 9.77083 14.4662 10.1659 13.9676 10.1659C13.4691 10.1659 13.2295 9.77083 13.2295 8.98111V5.39078Z" fill="#0D1E46"/>
</svg>
