<svg viewBox="0 0 98 45" fill="none" xmlns="http://www.w3.org/2000/svg">
<path fill-rule="evenodd" clip-rule="evenodd" d="M0 0H12.5V13H0V0ZM14.5 0H27V13H14.5V0ZM12.5 15H0V36H12.5V15ZM0 38H12.5V45H0V38ZM27.5 25.5H14.5V45H27.5V25.5Z" fill="#FF4B4B"/>
<path d="M84.1388 45V42.0344H85.2571C85.7604 42.0344 86.1746 41.9616 86.4995 41.8158C86.8245 41.6701 87.0857 41.461 87.2833 41.1885C87.4871 40.916 87.656 40.5992 87.7898 40.238L88.0479 39.5821L81.0518 25.2676H84.7601L89.6344 35.6851L93.8493 25.2676H97.5002L90.7526 41.141C90.4404 41.8253 90.0804 42.4622 89.6726 43.0515C89.2649 43.6344 88.7328 44.1065 88.0765 44.4677C87.4266 44.8226 86.5792 45 85.5342 45H84.1388Z" fill="#0D1E46"/>
<path d="M57.998 25.2676H62.3372L68.1481 39.373H68.3775L74.1885 25.2676H78.5276V44.7339H75.1251V31.3603H74.9435L69.534 44.6768H66.9917L61.5821 31.3318H61.4005V44.7339H57.998V25.2676Z" fill="#0D1E46"/>
<path d="M54.7513 31.8356H51.1768C51.0749 31.2526 50.8869 30.7362 50.6129 30.2863C50.3389 29.83 49.998 29.4435 49.5903 29.1266C49.1825 28.8098 48.7173 28.5722 48.1949 28.4138C47.6788 28.249 47.1212 28.1666 46.5223 28.1666C45.4582 28.1666 44.5152 28.4328 43.6933 28.9651C42.8713 29.491 42.2278 30.2641 41.7627 31.2843C41.2975 32.2982 41.065 33.537 41.065 35.0007C41.065 36.4899 41.2975 37.7445 41.7627 38.7647C42.2342 39.7786 42.8777 40.5453 43.6933 41.0649C44.5152 41.5782 45.455 41.8349 46.5127 41.8349C47.0989 41.8349 47.6469 41.7588 48.1566 41.6067C48.6727 41.4483 49.1347 41.217 49.5425 40.9129C49.9566 40.6087 50.3039 40.2348 50.5842 39.7913C50.871 39.3477 51.0685 38.8408 51.1768 38.2705L54.7513 38.2895C54.6175 39.2146 54.3276 40.0828 53.8816 40.8939C53.4419 41.705 52.8653 42.421 52.1517 43.042C51.438 43.6566 50.6034 44.1382 49.6476 44.4867C48.6919 44.8289 47.631 45 46.4649 45C44.7446 45 43.209 44.604 41.8582 43.8119C40.5074 43.0198 39.4434 41.876 38.666 40.3806C37.8887 38.8851 37.5 37.0918 37.5 35.0007C37.5 32.9033 37.8919 31.11 38.6756 29.6209C39.4593 28.1254 40.5265 26.9817 41.8773 26.1896C43.2281 25.3975 44.7573 25.0015 46.4649 25.0015C47.5545 25.0015 48.5676 25.1535 49.5042 25.4577C50.4409 25.7619 51.2756 26.2086 52.0083 26.7979C52.741 27.3809 53.3432 28.0969 53.8147 28.946C54.2926 29.7888 54.6048 30.752 54.7513 31.8356Z" fill="#0D1E46"/>
<path d="M78.2109 19.7324V0.266113H90.7982V3.22218H81.7568V7.78458H85.532C87.0293 7.78458 88.3132 8.02855 89.3837 8.51647C90.4605 8.99806 91.2856 9.67925 91.8591 10.56C92.4325 11.4408 92.7192 12.4769 92.7192 13.6682C92.7192 14.8658 92.4325 15.9209 91.8591 16.8334C91.2856 17.7395 90.4605 18.4492 89.3837 18.9625C88.3132 19.4758 87.0293 19.7324 85.532 19.7324H78.2109ZM81.7568 16.8429H85.532C86.3221 16.8429 86.9911 16.694 87.5391 16.3961C88.087 16.0983 88.5012 15.7054 88.7815 15.2175C89.0683 14.7296 89.2116 14.2005 89.2116 13.6302C89.2116 12.8064 88.8931 12.1062 88.2559 11.5296C87.6251 10.9466 86.7171 10.6551 85.532 10.6551H81.7568V16.8429Z" fill="#0D1E46"/>
<path d="M73.969 0.266113V19.7324H70.4518V3.19366H61.8883V19.7324H58.3711V0.266113H73.969Z" fill="#0D1E46"/>
<path d="M54.7513 6.83411H51.1768C51.0749 6.25113 50.8869 5.73469 50.6129 5.28479C50.3389 4.82855 49.998 4.44201 49.5903 4.12518C49.1825 3.80834 48.7173 3.57072 48.1949 3.4123C47.6788 3.24755 47.1212 3.16517 46.5223 3.16517C45.4582 3.16517 44.5152 3.43131 43.6933 3.96359C42.8713 4.48954 42.2278 5.26261 41.7627 6.28282C41.2975 7.29669 41.065 8.53551 41.065 9.99928C41.065 11.4884 41.2975 12.7431 41.7627 13.7633C42.2342 14.7771 42.8777 15.5439 43.6933 16.0635C44.5152 16.5768 45.455 16.8334 46.5127 16.8334C47.0989 16.8334 47.6469 16.7573 48.1566 16.6053C48.6727 16.4469 49.1347 16.2156 49.5425 15.9114C49.9566 15.6072 50.3039 15.2334 50.5842 14.7898C50.871 14.3462 51.0685 13.8393 51.1768 13.269L54.7513 13.288C54.6175 14.2132 54.3276 15.0813 53.8816 15.8924C53.4419 16.7035 52.8653 17.4195 52.1517 18.0405C51.438 18.6552 50.6034 19.1368 49.6476 19.4853C48.6919 19.8275 47.631 19.9986 46.4649 19.9986C44.7446 19.9986 43.209 19.6025 41.8582 18.8104C40.5074 18.0183 39.4434 16.8746 38.666 15.3791C37.8887 13.8837 37.5 12.0904 37.5 9.99928C37.5 7.90184 37.8919 6.10856 38.6756 4.61944C39.4593 3.12398 40.5265 1.98021 41.8773 1.18813C43.2281 0.396042 44.7573 0 46.4649 0C47.5545 0 48.5676 0.15208 49.5042 0.456241C50.4409 0.760402 51.2756 1.20714 52.0083 1.79645C52.741 2.37942 53.3432 3.09547 53.8147 3.94458C54.2926 4.78736 54.6048 5.75054 54.7513 6.83411Z" fill="#0D1E46"/>
</svg>
