<svg width="218" height="51" viewBox="0 0 218 51" fill="none" xmlns="http://www.w3.org/2000/svg">
<path fill-rule="evenodd" clip-rule="evenodd" d="M0.384033 3.40186H12.6608V16.1697H0.384033V3.40186ZM14.6251 3.40186H26.9019V16.1697H14.6251V3.40186ZM12.6608 18.134H0.384033V38.759H12.6608V18.134ZM0.384033 40.7233H12.6608V47.5983H0.384033V40.7233ZM27.393 28.4465H14.6251V47.5983H27.393V28.4465Z" fill="#FF4B4B"/>
<path d="M46.2571 6.84731H44.5614C44.513 6.56922 44.4239 6.32287 44.2939 6.10826C44.1639 5.89062 44.0022 5.70624 43.8087 5.55511C43.6153 5.40397 43.3946 5.29062 43.1468 5.21505C42.9019 5.13646 42.6374 5.09717 42.3533 5.09717C41.8485 5.09717 41.4012 5.22412 41.0112 5.47803C40.6213 5.72891 40.316 6.09768 40.0954 6.58433C39.8747 7.06796 39.7644 7.6589 39.7644 8.35714C39.7644 9.06748 39.8747 9.66597 40.0954 10.1526C40.319 10.6363 40.6243 11.002 41.0112 11.2499C41.4012 11.4947 41.847 11.6171 42.3488 11.6171C42.6269 11.6171 42.8868 11.5808 43.1286 11.5083C43.3735 11.4327 43.5926 11.3224 43.7861 11.1773C43.9825 11.0322 44.1473 10.8539 44.2803 10.6423C44.4163 10.4307 44.51 10.1889 44.5614 9.91685L46.2571 9.92592C46.1936 10.3672 46.0561 10.7813 45.8445 11.1682C45.636 11.5552 45.3624 11.8967 45.0239 12.1929C44.6853 12.4861 44.2893 12.7159 43.8359 12.8821C43.3825 13.0453 42.8793 13.127 42.3261 13.127C41.51 13.127 40.7815 12.938 40.1407 12.5602C39.4999 12.1824 38.9951 11.6368 38.6263 10.9234C38.2576 10.2101 38.0732 9.35463 38.0732 8.35714C38.0732 7.35663 38.2591 6.50121 38.6309 5.79088C39.0027 5.07752 39.509 4.53192 40.1498 4.15409C40.7906 3.77625 41.516 3.58733 42.3261 3.58733C42.843 3.58733 43.3236 3.65988 43.7679 3.80497C44.2123 3.95006 44.6082 4.16316 44.9558 4.44427C45.3035 4.72235 45.5891 5.06392 45.8128 5.46896C46.0395 5.87098 46.1876 6.33043 46.2571 6.84731ZM48.8778 13H47.0823L50.3514 3.71429H52.4279L55.7015 13H53.906L51.4259 5.61858H51.3534L48.8778 13ZM48.9367 9.35917H53.8335V10.7103H48.9367V9.35917ZM56.9246 13V3.71429H58.6067V7.6453H62.9095V3.71429H64.5962V13H62.9095V9.05538H58.6067V13H56.9246ZM71.9889 13L68.933 8.94203H68.1078V13H66.4257V3.71429H68.1078V7.53195H68.5295L71.8302 3.71429H73.9023L70.2343 7.94908L74.061 13H71.9889ZM74.7955 5.12437V3.71429H82.2041V5.12437H79.3341V13H77.6655V5.12437H74.7955ZM87.2074 7.68157V9.03271H83.027V7.68157H87.2074ZM96.5827 3.71429V13H94.9142V5.11077H90.8517V13H89.1831V3.71429H96.5827ZM98.5947 13V3.71429H104.634V5.12437H100.277V7.6453H104.321V9.05538H100.277V11.5899H104.67V13H98.5947ZM105.942 5.12437V3.71429H113.351V5.12437H110.481V13H108.812V5.12437H105.942ZM114.779 13V3.71429H120.818V5.12437H116.461V7.6453H120.505V9.05538H116.461V11.5899H120.855V13H114.779ZM122.534 13V3.71429H126.017C126.73 3.71429 127.328 3.84728 127.812 4.11328C128.299 4.37928 128.666 4.74502 128.914 5.21052C129.165 5.67299 129.29 6.19894 129.29 6.78836C129.29 7.38384 129.165 7.91281 128.914 8.37528C128.663 8.83775 128.293 9.20199 127.803 9.46798C127.313 9.73096 126.71 9.86244 125.994 9.86244H123.686V8.47956H125.767C126.184 8.47956 126.526 8.40702 126.792 8.26193C127.058 8.11684 127.254 7.91734 127.381 7.66343C127.511 7.40953 127.576 7.11784 127.576 6.78836C127.576 6.45889 127.511 6.16871 127.381 5.91783C127.254 5.66695 127.056 5.47198 126.787 5.33294C126.521 5.19087 126.178 5.11984 125.758 5.11984H124.217V13H122.534ZM130.751 13V3.71429H136.723V5.12437H132.433V7.30071H134.224C134.935 7.30071 135.544 7.41708 136.052 7.64983C136.562 7.87956 136.954 8.2045 137.226 8.62465C137.498 9.04481 137.634 9.53902 137.634 10.1073C137.634 10.6786 137.498 11.1818 137.226 11.6171C136.954 12.0494 136.562 12.3879 136.052 12.6327C135.544 12.8776 134.935 13 134.224 13H130.751ZM132.433 11.6217H134.224C134.599 11.6217 134.916 11.5506 135.176 11.4086C135.436 11.2665 135.633 11.0791 135.766 10.8463C135.902 10.6136 135.97 10.3612 135.97 10.0891C135.97 9.6962 135.819 9.36219 135.517 9.08712C135.217 8.80904 134.787 8.66999 134.224 8.66999H132.433V11.6217ZM139.935 13.127V11.7123H140.465C140.704 11.7123 140.901 11.6776 141.055 11.608C141.209 11.5385 141.333 11.4388 141.427 11.3088C141.523 11.1788 141.603 11.0277 141.667 10.8554L141.789 10.5426L138.47 3.71429H140.23L142.542 8.68359L144.542 3.71429H146.274L143.072 11.2861C142.924 11.6126 142.754 11.9164 142.56 12.1975C142.367 12.4756 142.114 12.7008 141.803 12.873C141.495 13.0423 141.093 13.127 140.597 13.127H139.935ZM147.472 13V3.71429H150.954C151.667 3.71429 152.266 3.84728 152.749 4.11328C153.236 4.37928 153.603 4.74502 153.851 5.21052C154.102 5.67299 154.227 6.19894 154.227 6.78836C154.227 7.38384 154.102 7.91281 153.851 8.37528C153.6 8.83775 153.23 9.20199 152.74 9.46798C152.251 9.73096 151.647 9.86244 150.931 9.86244H148.623V8.47956H150.704C151.122 8.47956 151.463 8.40702 151.729 8.26193C151.995 8.11684 152.192 7.91734 152.319 7.66343C152.448 7.40953 152.513 7.11784 152.513 6.78836C152.513 6.45889 152.448 6.16871 152.319 5.91783C152.192 5.66695 151.994 5.47198 151.725 5.33294C151.459 5.19087 151.115 5.11984 150.695 5.11984H149.154V13H147.472ZM161.66 3.71429V5.12437H157.371V13H155.688V3.71429H161.66ZM170.619 6.84731H168.923C168.875 6.56922 168.786 6.32287 168.656 6.10826C168.526 5.89062 168.364 5.70624 168.171 5.55511C167.977 5.40397 167.757 5.29062 167.509 5.21505C167.264 5.13646 166.999 5.09717 166.715 5.09717C166.21 5.09717 165.763 5.22412 165.373 5.47803C164.983 5.72891 164.678 6.09768 164.457 6.58433C164.237 7.06796 164.126 7.6589 164.126 8.35714C164.126 9.06748 164.237 9.66597 164.457 10.1526C164.681 10.6363 164.986 11.002 165.373 11.2499C165.763 11.4947 166.209 11.6171 166.711 11.6171C166.989 11.6171 167.249 11.5808 167.491 11.5083C167.735 11.4327 167.955 11.3224 168.148 11.1773C168.344 11.0322 168.509 10.8539 168.642 10.6423C168.778 10.4307 168.872 10.1889 168.923 9.91685L170.619 9.92592C170.556 10.3672 170.418 10.7813 170.206 11.1682C169.998 11.5552 169.724 11.8967 169.386 12.1929C169.047 12.4861 168.651 12.7159 168.198 12.8821C167.744 13.0453 167.241 13.127 166.688 13.127C165.872 13.127 165.143 12.938 164.503 12.5602C163.862 12.1824 163.357 11.6368 162.988 10.9234C162.619 10.2101 162.435 9.35463 162.435 8.35714C162.435 7.35663 162.621 6.50121 162.993 5.79088C163.365 5.07752 163.871 4.53192 164.512 4.15409C165.152 3.77625 165.878 3.58733 166.688 3.58733C167.205 3.58733 167.686 3.65988 168.13 3.80497C168.574 3.95006 168.97 4.16316 169.318 4.44427C169.665 4.72235 169.951 5.06392 170.175 5.46896C170.401 5.87098 170.55 6.33043 170.619 6.84731ZM177.723 13L174.667 8.94203H173.842V13H172.159V3.71429H173.842V7.53195H174.263L177.564 3.71429H179.636L175.968 7.94908L179.795 13H177.723ZM188.736 8.35714C188.736 9.35765 188.549 10.2146 188.174 10.9279C187.802 11.6383 187.294 12.1824 186.65 12.5602C186.009 12.938 185.283 13.127 184.469 13.127C183.656 13.127 182.928 12.938 182.284 12.5602C181.643 12.1793 181.135 11.6337 180.761 10.9234C180.389 10.2101 180.203 9.35463 180.203 8.35714C180.203 7.35663 180.389 6.50121 180.761 5.79088C181.135 5.07752 181.643 4.53192 182.284 4.15409C182.928 3.77625 183.656 3.58733 184.469 3.58733C185.283 3.58733 186.009 3.77625 186.65 4.15409C187.294 4.53192 187.802 5.07752 188.174 5.79088C188.549 6.50121 188.736 7.35663 188.736 8.35714ZM187.045 8.35714C187.045 7.65286 186.934 7.0589 186.714 6.57526C186.496 6.08861 186.194 5.72135 185.807 5.47349C185.42 5.22261 184.974 5.09717 184.469 5.09717C183.965 5.09717 183.519 5.22261 183.132 5.47349C182.745 5.72135 182.441 6.08861 182.221 6.57526C182.003 7.0589 181.894 7.65286 181.894 8.35714C181.894 9.06143 182.003 9.6569 182.221 10.1436C182.441 10.6272 182.745 10.9944 183.132 11.2453C183.519 11.4932 183.965 11.6171 184.469 11.6171C184.974 11.6171 185.42 11.4932 185.807 11.2453C186.194 10.9944 186.496 10.6272 186.714 10.1436C186.934 9.6569 187.045 9.06143 187.045 8.35714ZM190.326 13V3.71429H196.366V5.12437H192.008V7.6453H196.053V9.05538H192.008V11.5899H196.402V13H190.326ZM46.2571 23.8473H44.5614C44.513 23.5692 44.4239 23.3229 44.2939 23.1083C44.1639 22.8906 44.0022 22.7062 43.8087 22.5551C43.6153 22.404 43.3946 22.2906 43.1468 22.2151C42.9019 22.1365 42.6374 22.0972 42.3533 22.0972C41.8485 22.0972 41.4012 22.2241 41.0112 22.478C40.6213 22.7289 40.316 23.0977 40.0954 23.5843C39.8747 24.068 39.7644 24.6589 39.7644 25.3571C39.7644 26.0675 39.8747 26.666 40.0954 27.1526C40.319 27.6363 40.6243 28.002 41.0112 28.2499C41.4012 28.4947 41.847 28.6171 42.3488 28.6171C42.6269 28.6171 42.8868 28.5808 43.1286 28.5083C43.3735 28.4327 43.5926 28.3224 43.7861 28.1773C43.9825 28.0322 44.1473 27.8539 44.2803 27.6423C44.4163 27.4307 44.51 27.1889 44.5614 26.9169L46.2571 26.9259C46.1936 27.3672 46.0561 27.7813 45.8445 28.1682C45.636 28.5552 45.3624 28.8967 45.0239 29.1929C44.6853 29.4861 44.2893 29.7159 43.8359 29.8821C43.3825 30.0453 42.8793 30.127 42.3261 30.127C41.51 30.127 40.7815 29.938 40.1407 29.5602C39.4999 29.1824 38.9951 28.6368 38.6263 27.9234C38.2576 27.2101 38.0732 26.3546 38.0732 25.3571C38.0732 24.3566 38.2591 23.5012 38.6309 22.7909C39.0027 22.0775 39.509 21.5319 40.1498 21.1541C40.7906 20.7763 41.516 20.5873 42.3261 20.5873C42.843 20.5873 43.3236 20.6599 43.7679 20.805C44.2123 20.9501 44.6082 21.1632 44.9558 21.4443C45.3035 21.7224 45.5891 22.0639 45.8128 22.469C46.0395 22.871 46.1876 23.3304 46.2571 23.8473ZM47.3895 22.1244V20.7143H54.7981V22.1244H51.9281V30H50.2595V22.1244H47.3895ZM56.2263 30V20.7143H59.7085C60.4218 20.7143 61.0203 20.8473 61.504 21.1133C61.9906 21.3793 62.3579 21.745 62.6057 22.2105C62.8566 22.673 62.9821 23.1989 62.9821 23.7884C62.9821 24.3838 62.8566 24.9128 62.6057 25.3753C62.3548 25.8378 61.9846 26.202 61.4949 26.468C61.0052 26.731 60.4022 26.8624 59.6858 26.8624H57.378V25.4796H59.4591C59.8762 25.4796 60.2178 25.407 60.4838 25.2619C60.7498 25.1168 60.9463 24.9173 61.0732 24.6634C61.2032 24.4095 61.2682 24.1178 61.2682 23.7884C61.2682 23.4589 61.2032 23.1687 61.0732 22.9178C60.9463 22.6669 60.7483 22.472 60.4793 22.3329C60.2133 22.1909 59.8702 22.1198 59.45 22.1198H57.9085V30H56.2263ZM72.7404 25.3571C72.7404 26.3577 72.553 27.2146 72.1782 27.9279C71.8064 28.6383 71.2986 29.1824 70.6548 29.5602C70.014 29.938 69.287 30.127 68.4739 30.127C67.6608 30.127 66.9323 29.938 66.2885 29.5602C65.6477 29.1793 65.1399 28.6337 64.7651 27.9234C64.3933 27.2101 64.2074 26.3546 64.2074 25.3571C64.2074 24.3566 64.3933 23.5012 64.7651 22.7909C65.1399 22.0775 65.6477 21.5319 66.2885 21.1541C66.9323 20.7763 67.6608 20.5873 68.4739 20.5873C69.287 20.5873 70.014 20.7763 70.6548 21.1541C71.2986 21.5319 71.8064 22.0775 72.1782 22.7909C72.553 23.5012 72.7404 24.3566 72.7404 25.3571ZM71.0492 25.3571C71.0492 24.6529 70.9389 24.0589 70.7183 23.5753C70.5006 23.0886 70.1984 22.7214 69.8115 22.4735C69.4246 22.2226 68.9787 22.0972 68.4739 22.0972C67.9691 22.0972 67.5233 22.2226 67.1364 22.4735C66.7495 22.7214 66.4457 23.0886 66.225 23.5753C66.0074 24.0589 65.8986 24.6529 65.8986 25.3571C65.8986 26.0614 66.0074 26.6569 66.225 27.1436C66.4457 27.6272 66.7495 27.9944 67.1364 28.2453C67.5233 28.4932 67.9691 28.6171 68.4739 28.6171C68.9787 28.6171 69.4246 28.4932 69.8115 28.2453C70.1984 27.9944 70.5006 27.6272 70.7183 27.1436C70.9389 26.6569 71.0492 26.0614 71.0492 25.3571ZM74.3308 20.7143H75.9993V27.0438H76.0854L80.4517 20.7143H81.9615V30H80.2794V23.675H80.2023L75.8225 30H74.3308V20.7143ZM83.3864 22.1244V20.7143H90.795V22.1244H87.9249V30H86.2564V22.1244H83.3864ZM92.2232 30V20.7143H98.2626V22.1244H93.9053V24.6453H97.9497V26.0554H93.9053V28.5899H98.2988V30H92.2232ZM99.3757 30V28.6035L99.6386 28.5899C99.9953 28.5688 100.278 28.4403 100.487 28.2045C100.698 27.9687 100.854 27.5894 100.954 27.0665C101.056 26.5435 101.124 25.8423 101.158 24.9627L101.312 20.7143H107.396V30H105.751V22.0972H102.88L102.735 25.4841C102.693 26.4997 102.581 27.3415 102.4 28.0096C102.222 28.6776 101.928 29.1763 101.52 29.5058C101.115 29.8353 100.551 30 99.8291 30H99.3757ZM110.368 24.3007H112.726C113.436 24.3007 114.046 24.4171 114.553 24.6498C115.064 24.8796 115.456 25.2045 115.728 25.6247C116 26.0448 116.136 26.539 116.136 27.1073C116.136 27.6786 116 28.1818 115.728 28.6171C115.456 29.0494 115.064 29.3879 114.553 29.6327C114.046 29.8776 113.436 30 112.726 30H109.249V20.7143H110.935V28.6217H112.726C113.101 28.6217 113.418 28.5506 113.678 28.4086C113.938 28.2665 114.135 28.0791 114.268 27.8463C114.404 27.6136 114.472 27.3612 114.472 27.0891C114.472 26.6962 114.321 26.3622 114.018 26.0871C113.719 25.809 113.288 25.67 112.726 25.67H110.368V24.3007ZM117.771 30V20.7143H119.454V24.6453H123.756V20.7143H125.443V30H123.756V26.0554H119.454V30H117.771ZM135.57 25.3571C135.57 26.3577 135.382 27.2146 135.008 27.9279C134.636 28.6383 134.128 29.1824 133.484 29.5602C132.843 29.938 132.116 30.127 131.303 30.127C130.49 30.127 129.762 29.938 129.118 29.5602C128.477 29.1793 127.969 28.6337 127.594 27.9234C127.223 27.2101 127.037 26.3546 127.037 25.3571C127.037 24.3566 127.223 23.5012 127.594 22.7909C127.969 22.0775 128.477 21.5319 129.118 21.1541C129.762 20.7763 130.49 20.5873 131.303 20.5873C132.116 20.5873 132.843 20.7763 133.484 21.1541C134.128 21.5319 134.636 22.0775 135.008 22.7909C135.382 23.5012 135.57 24.3566 135.57 25.3571ZM133.879 25.3571C133.879 24.6529 133.768 24.0589 133.548 23.5753C133.33 23.0886 133.028 22.7214 132.641 22.4735C132.254 22.2226 131.808 22.0972 131.303 22.0972C130.798 22.0972 130.353 22.2226 129.966 22.4735C129.579 22.7214 129.275 23.0886 129.054 23.5753C128.837 24.0589 128.728 24.6529 128.728 25.3571C128.728 26.0614 128.837 26.6569 129.054 27.1436C129.275 27.6272 129.579 27.9944 129.966 28.2453C130.353 28.4932 130.798 28.6171 131.303 28.6171C131.808 28.6171 132.254 28.4932 132.641 28.2453C133.028 27.9944 133.33 27.6272 133.548 27.1436C133.768 26.6569 133.879 26.0614 133.879 25.3571ZM141.309 24.6816V26.0327H137.128V24.6816H141.309ZM38.3089 37.7143H40.3674L43.1241 44.4428H43.2329L45.9896 37.7143H48.0481V47H46.4339V40.6206H46.3478L43.7815 46.9728H42.5755L40.0092 40.607H39.9231V47H38.3089V37.7143ZM58.1771 42.3571C58.1771 43.3577 57.9897 44.2146 57.6149 44.9279C57.2431 45.6383 56.7353 46.1824 56.0914 46.5602C55.4506 46.938 54.7237 47.127 53.9106 47.127C53.0975 47.127 52.369 46.938 51.7252 46.5602C51.0844 46.1793 50.5765 45.6337 50.2017 44.9234C49.8299 44.2101 49.644 43.3546 49.644 42.3571C49.644 41.3566 49.8299 40.5012 50.2017 39.7909C50.5765 39.0775 51.0844 38.5319 51.7252 38.1541C52.369 37.7763 53.0975 37.5873 53.9106 37.5873C54.7237 37.5873 55.4506 37.7763 56.0914 38.1541C56.7353 38.5319 57.2431 39.0775 57.6149 39.7909C57.9897 40.5012 58.1771 41.3566 58.1771 42.3571ZM56.4859 42.3571C56.4859 41.6529 56.3756 41.0589 56.1549 40.5753C55.9373 40.0886 55.635 39.7214 55.2481 39.4735C54.8612 39.2226 54.4154 39.0972 53.9106 39.0972C53.4058 39.0972 52.9599 39.2226 52.573 39.4735C52.1861 39.7214 51.8823 40.0886 51.6617 40.5753C51.4441 41.0589 51.3352 41.6529 51.3352 42.3571C51.3352 43.0614 51.4441 43.6569 51.6617 44.1436C51.8823 44.6272 52.1861 44.9944 52.573 45.2453C52.9599 45.4932 53.4058 45.6171 53.9106 45.6171C54.4154 45.6171 54.8612 45.4932 55.2481 45.2453C55.635 44.9944 55.9373 44.6272 56.1549 44.1436C56.3756 43.6569 56.4859 43.0614 56.4859 42.3571ZM59.7674 47V37.7143H61.4496V41.6453H65.7524V37.7143H67.439V47H65.7524V43.0554H61.4496V47H59.7674ZM68.8604 39.1244V37.7143H76.2691V39.1244H73.399V47H71.7305V39.1244H68.8604ZM77.7676 47H75.9721L79.2411 37.7143H81.3177L84.5913 47H82.7958L80.3157 39.6186H80.2431L77.7676 47ZM77.8265 43.3592H82.7233V44.7103H77.8265V43.3592ZM92.3615 37.7143V47H90.7111V37.7143H92.3615ZM85.2567 47L88.2038 42.1214L85.4244 37.7143H87.4874L89.6819 41.6362H93.4315L95.5897 37.7143H97.6437L94.9051 42.1168L97.816 47H95.8255L93.6718 43.1959H89.4234L87.229 47H85.2567ZM99.0934 47V37.7143H100.776V41.6453H105.078V37.7143H106.765V47H105.078V43.0554H100.776V47H99.0934ZM116.892 42.3571C116.892 43.3577 116.704 44.2146 116.33 44.9279C115.958 45.6383 115.45 46.1824 114.806 46.5602C114.165 46.938 113.438 47.127 112.625 47.127C111.812 47.127 111.084 46.938 110.44 46.5602C109.799 46.1793 109.291 45.6337 108.916 44.9234C108.545 44.2101 108.359 43.3546 108.359 42.3571C108.359 41.3566 108.545 40.5012 108.916 39.7909C109.291 39.0775 109.799 38.5319 110.44 38.1541C111.084 37.7763 111.812 37.5873 112.625 37.5873C113.438 37.5873 114.165 37.7763 114.806 38.1541C115.45 38.5319 115.958 39.0775 116.33 39.7909C116.704 40.5012 116.892 41.3566 116.892 42.3571ZM115.201 42.3571C115.201 41.6529 115.09 41.0589 114.87 40.5753C114.652 40.0886 114.35 39.7214 113.963 39.4735C113.576 39.2226 113.13 39.0972 112.625 39.0972C112.12 39.0972 111.675 39.2226 111.288 39.4735C110.901 39.7214 110.597 40.0886 110.376 40.5753C110.159 41.0589 110.05 41.6529 110.05 42.3571C110.05 43.0614 110.159 43.6569 110.376 44.1436C110.597 44.6272 110.901 44.9944 111.288 45.2453C111.675 45.4932 112.12 45.6171 112.625 45.6171C113.13 45.6171 113.576 45.4932 113.963 45.2453C114.35 44.9944 114.652 44.6272 114.87 44.1436C115.09 43.6569 115.201 43.0614 115.201 42.3571ZM118.482 47V37.7143H124.521V39.1244H120.164V41.6453H124.209V43.0554H120.164V45.5899H124.558V47H118.482ZM130.234 47.127V45.7123H130.765C131.004 45.7123 131.2 45.6776 131.354 45.608C131.508 45.5385 131.632 45.4388 131.726 45.3088C131.823 45.1788 131.903 45.0277 131.966 44.8554L132.089 44.5426L128.77 37.7143H130.529L132.841 42.6836L134.841 37.7143H136.573L133.372 45.2861C133.224 45.6126 133.053 45.9164 132.86 46.1975C132.666 46.4756 132.414 46.7008 132.102 46.873C131.794 47.0423 131.392 47.127 130.896 47.127H130.234ZM145.347 37.7143V47H143.679V39.1108H139.616V47H137.948V37.7143H145.347ZM147.359 47V37.7143H150.842C151.555 37.7143 152.153 37.8473 152.637 38.1133C153.124 38.3793 153.491 38.745 153.739 39.2105C153.99 39.673 154.115 40.1989 154.115 40.7884C154.115 41.3838 153.99 41.9128 153.739 42.3753C153.488 42.8378 153.118 43.202 152.628 43.468C152.138 43.731 151.535 43.8624 150.819 43.8624H148.511V42.4796H150.592C151.009 42.4796 151.351 42.407 151.617 42.2619C151.883 42.1168 152.079 41.9173 152.206 41.6634C152.336 41.4095 152.401 41.1178 152.401 40.7884C152.401 40.4589 152.336 40.1687 152.206 39.9178C152.079 39.6669 151.881 39.472 151.612 39.3329C151.346 39.1909 151.003 39.1198 150.583 39.1198H149.042V47H147.359ZM155.734 47H153.938L157.207 37.7143H159.284L162.558 47H160.762L158.282 39.6186H158.209L155.734 47ZM155.793 43.3592H160.689V44.7103H155.793V43.3592ZM163.781 47V37.7143H167.335C168.006 37.7143 168.564 37.8201 169.008 38.0317C169.456 38.2402 169.79 38.5259 170.01 38.8886C170.234 39.2513 170.346 39.6624 170.346 40.1219C170.346 40.4997 170.273 40.8231 170.128 41.0921C169.983 41.3581 169.788 41.5743 169.543 41.7405C169.299 41.9068 169.025 42.0262 168.723 42.0987V42.1894C169.052 42.2075 169.368 42.3088 169.67 42.4932C169.976 42.6745 170.225 42.9315 170.418 43.264C170.612 43.5964 170.709 43.9985 170.709 44.47C170.709 44.9506 170.592 45.3829 170.359 45.7667C170.127 46.1476 169.776 46.4484 169.308 46.669C168.839 46.8897 168.25 47 167.539 47H163.781ZM165.463 45.5944H167.272C167.882 45.5944 168.322 45.4781 168.591 45.2453C168.863 45.0096 168.999 44.7073 168.999 44.3385C168.999 44.0635 168.931 43.8156 168.795 43.5949C168.659 43.3713 168.466 43.1959 168.215 43.069C167.964 42.939 167.665 42.874 167.317 42.874H165.463V45.5944ZM165.463 41.6634H167.127C167.417 41.6634 167.678 41.6105 167.911 41.5047C168.144 41.3959 168.327 41.2433 168.46 41.0468C168.596 40.8473 168.664 40.6115 168.664 40.3395C168.664 39.9798 168.537 39.6836 168.283 39.4508C168.032 39.2181 167.659 39.1017 167.163 39.1017H165.463V41.6634ZM171.569 47V45.6035L171.832 45.5899C172.189 45.5688 172.471 45.4403 172.68 45.2045C172.891 44.9687 173.047 44.5894 173.147 44.0665C173.25 43.5435 173.318 42.8423 173.351 41.9627L173.505 37.7143H179.59V47H177.944V39.0972H175.074L174.929 42.4841C174.886 43.4997 174.774 44.3415 174.593 45.0096C174.415 45.6776 174.122 46.1763 173.714 46.5058C173.308 46.8353 172.745 47 172.022 47H171.569ZM181.424 47V37.7143H187.463V39.1244H183.106V41.6453H187.15V43.0554H183.106V45.5899H187.499V47H181.424ZM189.179 47V37.7143H190.861V41.6453H195.164V37.7143H196.851V47H195.164V43.0554H190.861V47H189.179ZM198.68 37.7143H200.349V44.0438H200.435L204.801 37.7143H206.311V47H204.629V40.675H204.552L200.172 47H198.68V37.7143ZM208.144 47V37.7143H214.183V39.1244H209.826V41.6453H213.87V43.0554H209.826V45.5899H214.22V47H208.144Z" fill="#0D1E46"/>
</svg>
