<svg viewBox="0 0 18 18" fill="none" xmlns="http://www.w3.org/2000/svg">
<path fill-rule="evenodd" clip-rule="evenodd" d="M17.1102 0.889903C16.9561 0.735956 16.7604 0.630322 16.5472 0.585958C16.334 0.541594 16.1125 0.560429 15.9098 0.640153L1.27071 6.4069C1.05185 6.49296 0.865715 6.64585 0.738788 6.84382C0.61186 7.0418 0.550612 7.27476 0.563761 7.50956C0.576909 7.74437 0.663784 7.96904 0.812021 8.1516C0.960258 8.33417 1.1623 8.46532 1.3894 8.5264L7.75578 10.2443L9.47365 16.6107C9.53473 16.8378 9.66589 17.0398 9.84845 17.188C10.031 17.3363 10.2557 17.4231 10.4905 17.4363C10.7253 17.4494 10.9583 17.3882 11.1562 17.2613C11.3542 17.1343 11.5071 16.9482 11.5932 16.7293L17.3599 2.09028C17.4396 1.8876 17.4585 1.66606 17.4141 1.45283C17.3697 1.23961 17.2641 1.04396 17.1102 0.889903ZM10.5542 16.2973L8.84084 9.94784C8.78977 9.75924 8.6902 9.58731 8.55204 9.44914C8.41387 9.31098 8.24194 9.21141 8.05334 9.16034L1.70271 7.44584L16.3069 1.69315L10.5542 16.2973Z"/>
</svg>
